<svg width="429" height="138" viewBox="0 0 429 138" fill="none" xmlns="http://www.w3.org/2000/svg">
<path d="M114.5 68.617C114.5 30.9971 144.997 0.5 182.617 0.5C220.237 0.5 250.734 30.9971 250.734 68.617C250.734 106.237 220.237 136.734 182.617 136.734C144.997 136.734 114.5 106.237 114.5 68.617ZM130.147 68.617C130.147 97.5951 153.639 121.087 182.617 121.087C211.595 121.087 235.087 97.5951 235.087 68.617C235.087 39.6389 211.595 16.147 182.617 16.147C153.639 16.147 130.147 39.6389 130.147 68.617Z" fill="black" stroke="black"/>
<rect y="38" width="399" height="63" fill="white"/>
<path d="M3.35 84V47.75H13.3V84H3.35ZM33.3004 57C37.9337 57 41.5671 58.1833 44.2004 60.55C46.8671 62.8833 48.2004 66.3 48.2004 70.8C48.2004 75.3 46.8671 78.7333 44.2004 81.1C41.5671 83.4333 37.9337 84.6 33.3004 84.6C28.6671 84.6 25.0337 83.4333 22.4004 81.1C19.7671 78.7667 18.4504 75.3333 18.4504 70.8C18.4504 66.2667 19.7671 62.8333 22.4004 60.5C25.0337 58.1667 28.6671 57 33.3004 57ZM33.3004 63.75C30.0337 63.75 28.4004 65.6333 28.4004 69.4V72.25C28.4004 75.9833 30.0337 77.85 33.3004 77.85C36.6004 77.85 38.2504 75.9833 38.2504 72.25V69.4C38.2504 65.6333 36.6004 63.75 33.3004 63.75ZM71.2 57C74.2667 57 76.5667 57.85 78.1 59.55C79.6333 61.25 80.4 63.7 80.4 66.9V84H70.45V68.1C70.45 66.9667 70.15 66.0667 69.55 65.4C68.9833 64.7 68.1667 64.35 67.1 64.35C65.8667 64.35 64.8667 64.75 64.1 65.55C63.3333 66.35 62.95 67.3333 62.95 68.5V84H53V57.6H61.15L61.8 61.6C62.8333 60.2 64.1833 59.0833 65.85 58.25C67.55 57.4167 69.3333 57 71.2 57ZM99.9996 57C104.833 57 108.516 58.1333 111.05 60.4C113.616 62.6667 114.9 66.1333 114.9 70.8V72.5H95.0996C95.0996 74.4 95.5163 75.8333 96.3496 76.8C97.2163 77.7667 98.5663 78.25 100.4 78.25C102.066 78.25 103.283 77.9 104.05 77.2C104.85 76.5 105.25 75.5667 105.25 74.4H114.9C114.9 77.6 113.683 80.1 111.25 81.9C108.816 83.7 105.266 84.6 100.6 84.6C95.6996 84.6 91.8996 83.4667 89.1996 81.2C86.4996 78.9 85.1496 75.4333 85.1496 70.8C85.1496 66.2667 86.4663 62.8333 89.0996 60.5C91.7329 58.1667 95.3663 57 99.9996 57ZM100.4 63.35C97.2663 63.35 95.5163 64.8333 95.1496 67.8H104.85C104.85 66.4333 104.45 65.35 103.65 64.55C102.883 63.75 101.8 63.35 100.4 63.35ZM120.049 84V47.75H129.999V84H120.049ZM155.33 83.2C153.963 86.9 152.28 89.7 150.28 91.6C148.313 93.5333 145.546 94.5 141.98 94.5C139.813 94.5 137.896 94.2 136.23 93.6V87.65H140.23C142.73 87.65 144.213 86.4333 144.68 84L134.18 57.6H144.88L149.93 75.15H150.28L154.93 57.6H164.73L155.33 83.2ZM201.796 57C205.363 57 208.113 58.1667 210.046 60.5C211.98 62.8333 212.946 66.2833 212.946 70.85C212.946 75.3833 211.98 78.8167 210.046 81.15C208.113 83.45 205.363 84.6 201.796 84.6C198.73 84.6 196.263 83.6 194.396 81.6V93.85H184.446V57.6H192.546L193.396 61.35C195.33 58.45 198.13 57 201.796 57ZM198.696 64.35C197.23 64.35 196.13 64.8667 195.396 65.9C194.663 66.9333 194.296 68.2833 194.296 69.95V71.6C194.296 73.2667 194.663 74.6333 195.396 75.7C196.13 76.7333 197.23 77.25 198.696 77.25C201.563 77.25 202.996 75.5333 202.996 72.1V69.45C202.996 66.05 201.563 64.35 198.696 64.35ZM236.896 84L236.246 80C235.213 81.4333 233.846 82.5667 232.146 83.4C230.479 84.2 228.713 84.6 226.846 84.6C223.779 84.6 221.479 83.75 219.946 82.05C218.413 80.35 217.646 77.9 217.646 74.7V57.6H227.596V73.5C227.596 74.6333 227.879 75.55 228.446 76.25C229.046 76.9167 229.879 77.25 230.946 77.25C232.179 77.25 233.179 76.85 233.946 76.05C234.713 75.25 235.096 74.2667 235.096 73.1V57.6H245.046V84H236.896ZM270.296 84L269.446 80.25C267.512 83.15 264.712 84.6 261.046 84.6C257.479 84.6 254.729 83.4333 252.796 81.1C250.862 78.7667 249.896 75.3167 249.896 70.75C249.896 66.2167 250.862 62.8 252.796 60.5C254.729 58.1667 257.479 57 261.046 57C264.079 57 266.546 58.0167 268.446 60.05V47.75H278.396V84H270.296ZM264.146 64.35C261.279 64.35 259.846 66.0667 259.846 69.5V72.15C259.846 75.55 261.279 77.25 264.146 77.25C265.612 77.25 266.712 76.7333 267.446 75.7C268.179 74.6667 268.546 73.3167 268.546 71.65V70C268.546 68.3333 268.179 66.9833 267.446 65.95C266.712 64.8833 265.612 64.35 264.146 64.35ZM304.134 84L303.284 80.25C301.35 83.15 298.55 84.6 294.884 84.6C291.317 84.6 288.567 83.4333 286.634 81.1C284.7 78.7667 283.734 75.3167 283.734 70.75C283.734 66.2167 284.7 62.8 286.634 60.5C288.567 58.1667 291.317 57 294.884 57C297.917 57 300.384 58.0167 302.284 60.05V47.75H312.234V84H304.134ZM297.984 64.35C295.117 64.35 293.684 66.0667 293.684 69.5V72.15C293.684 75.55 295.117 77.25 297.984 77.25C299.45 77.25 300.55 76.7333 301.284 75.7C302.017 74.6667 302.384 73.3167 302.384 71.65V70C302.384 68.3333 302.017 66.9833 301.284 65.95C300.55 64.8833 299.45 64.35 297.984 64.35ZM318.633 54.5V47.75H328.583V54.5H318.633ZM318.633 84V57.6H328.583V84H318.633ZM353.134 57C356.2 57 358.5 57.85 360.034 59.55C361.567 61.25 362.334 63.7 362.334 66.9V84H352.384V68.1C352.384 66.9667 352.084 66.0667 351.484 65.4C350.917 64.7 350.1 64.35 349.034 64.35C347.8 64.35 346.8 64.75 346.034 65.55C345.267 66.35 344.884 67.3333 344.884 68.5V84H334.934V57.6H343.084L343.734 61.6C344.767 60.2 346.117 59.0833 347.784 58.25C349.484 57.4167 351.267 57 353.134 57ZM397.983 52.65C397.983 54.6833 397.467 56.25 396.433 57.35C395.433 58.45 393.917 59.2667 391.883 59.8C392.85 60.5333 393.6 61.4 394.133 62.4C394.7 63.3667 394.983 64.4 394.983 65.5C394.983 68.3 393.917 70.4167 391.783 71.85C389.683 73.2833 387.05 74 383.883 74H380.083C377.983 74 376.933 74.4833 376.933 75.45C376.933 75.9167 377.167 76.3 377.633 76.6C378.1 76.8667 378.917 77 380.083 77H389.083C392.017 77 394.233 77.7667 395.733 79.3C397.233 80.8333 397.983 82.8833 397.983 85.45C397.983 87.35 397.483 88.9833 396.483 90.35C395.483 91.7167 394.133 92.75 392.433 93.45C390.733 94.15 388.883 94.5 386.883 94.5H372.183C370.983 94.5 369.867 94.2167 368.833 93.65C367.833 93.0833 367.033 92.3 366.433 91.3C365.833 90.3333 365.533 89.25 365.533 88.05C365.533 86.75 365.933 85.5667 366.733 84.5C367.533 83.4667 368.533 82.6833 369.733 82.15C368.933 81.5833 368.3 80.9 367.833 80.1C367.367 79.3 367.133 78.4333 367.133 77.5C367.133 76.2 367.617 75.0333 368.583 74C369.55 72.9333 370.75 72.2167 372.183 71.85C370.883 71.0167 369.85 70.0667 369.083 69C368.317 67.9 367.933 66.75 367.933 65.55C367.933 62.4833 369.167 60.3 371.633 59C374.133 57.6667 377.433 57 381.533 57C383.333 57 384.783 57.1 385.883 57.3C387.517 56.2667 388.567 55.3333 389.033 54.5C389.533 53.6333 389.783 53.0167 389.783 52.65H397.983ZM381.433 62.2C380.333 62.2 379.433 62.4833 378.733 63.05C378.033 63.6167 377.683 64.4333 377.683 65.5C377.683 66.6 378 67.4333 378.633 68C379.3 68.5333 380.233 68.8 381.433 68.8C382.633 68.8 383.567 68.5333 384.233 68C384.933 67.4333 385.283 66.6 385.283 65.5C385.283 64.4 384.933 63.5833 384.233 63.05C383.567 62.4833 382.633 62.2 381.433 62.2ZM377.583 84C376.817 84 376.183 84.2 375.683 84.6C375.217 85.0333 374.983 85.6333 374.983 86.4C374.983 87.1667 375.233 87.7833 375.733 88.25C376.233 88.7167 376.85 88.95 377.583 88.95H385.383C386.117 88.95 386.733 88.7167 387.233 88.25C387.767 87.8167 388.033 87.2167 388.033 86.45C388.033 85.6833 387.783 85.0833 387.283 84.65C386.783 84.2167 386.15 84 385.383 84H377.583Z" fill="black"/>
</svg>
