<svg width="373" height="80" viewBox="0 0 373 80" fill="none" xmlns="http://www.w3.org/2000/svg">
<path d="M121.5 40C121.5 18.1848 139.185 0.5 161 0.5C182.815 0.5 200.5 18.1848 200.5 40C200.5 61.8152 182.815 79.5 161 79.5C139.185 79.5 121.5 61.8152 121.5 40ZM130.204 40C130.204 57.0079 143.992 70.7957 161 70.7957C178.008 70.7957 191.796 57.0079 191.796 40C191.796 22.9921 178.008 9.2043 161 9.2043C143.992 9.2043 130.204 22.9921 130.204 40Z" fill="white" stroke="white"/>
<rect y="26" width="315" height="27" fill="#115484"/>
<path d="M67.608 47V29.6H72.384V47H67.608ZM81.9842 34.04C84.2082 34.04 85.9522 34.608 87.2162 35.744C88.4962 36.864 89.1362 38.504 89.1362 40.664C89.1362 42.824 88.4962 44.472 87.2162 45.608C85.9522 46.728 84.2082 47.288 81.9842 47.288C79.7602 47.288 78.0162 46.728 76.7522 45.608C75.4882 44.488 74.8562 42.84 74.8562 40.664C74.8562 38.488 75.4882 36.84 76.7522 35.72C78.0162 34.6 79.7602 34.04 81.9842 34.04ZM81.9842 37.28C80.4162 37.28 79.6322 38.184 79.6322 39.992V41.36C79.6322 43.152 80.4162 44.048 81.9842 44.048C83.5682 44.048 84.3602 43.152 84.3602 41.36V39.992C84.3602 38.184 83.5682 37.28 81.9842 37.28ZM100.176 34.04C101.648 34.04 102.752 34.448 103.488 35.264C104.224 36.08 104.592 37.256 104.592 38.792V47H99.816V39.368C99.816 38.824 99.672 38.392 99.384 38.072C99.112 37.736 98.72 37.568 98.208 37.568C97.616 37.568 97.136 37.76 96.768 38.144C96.4 38.528 96.216 39 96.216 39.56V47H91.44V34.328H95.352L95.664 36.248C96.16 35.576 96.808 35.04 97.608 34.64C98.424 34.24 99.28 34.04 100.176 34.04ZM114 34.04C116.32 34.04 118.088 34.584 119.304 35.672C120.536 36.76 121.152 38.424 121.152 40.664V41.48H111.648C111.648 42.392 111.848 43.08 112.248 43.544C112.664 44.008 113.312 44.24 114.192 44.24C114.992 44.24 115.576 44.072 115.944 43.736C116.328 43.4 116.52 42.952 116.52 42.392H121.152C121.152 43.928 120.568 45.128 119.4 45.992C118.232 46.856 116.528 47.288 114.288 47.288C111.936 47.288 110.112 46.744 108.816 45.656C107.52 44.552 106.872 42.888 106.872 40.664C106.872 38.488 107.504 36.84 108.768 35.72C110.032 34.6 111.776 34.04 114 34.04ZM114.192 37.088C112.688 37.088 111.848 37.8 111.672 39.224H116.328C116.328 38.568 116.136 38.048 115.752 37.664C115.384 37.28 114.864 37.088 114.192 37.088ZM123.624 47V29.6H128.4V47H123.624ZM140.558 46.616C139.902 48.392 139.094 49.736 138.134 50.648C137.19 51.576 135.862 52.04 134.15 52.04C133.11 52.04 132.19 51.896 131.39 51.608V48.752H133.31C134.51 48.752 135.222 48.168 135.446 47L130.406 34.328H135.542L137.966 42.752H138.134L140.366 34.328H145.07L140.558 46.616ZM162.862 34.04C164.574 34.04 165.894 34.6 166.822 35.72C167.75 36.84 168.214 38.496 168.214 40.688C168.214 42.864 167.75 44.512 166.822 45.632C165.894 46.736 164.574 47.288 162.862 47.288C161.39 47.288 160.206 46.808 159.31 45.848V51.728H154.534V34.328H158.422L158.83 36.128C159.758 34.736 161.102 34.04 162.862 34.04ZM161.374 37.568C160.67 37.568 160.142 37.816 159.79 38.312C159.438 38.808 159.262 39.456 159.262 40.256V41.048C159.262 41.848 159.438 42.504 159.79 43.016C160.142 43.512 160.67 43.76 161.374 43.76C162.75 43.76 163.438 42.936 163.438 41.288V40.016C163.438 38.384 162.75 37.568 161.374 37.568ZM179.71 47L179.398 45.08C178.902 45.768 178.246 46.312 177.43 46.712C176.63 47.096 175.782 47.288 174.886 47.288C173.414 47.288 172.31 46.88 171.574 46.064C170.838 45.248 170.47 44.072 170.47 42.536V34.328H175.246V41.96C175.246 42.504 175.382 42.944 175.654 43.28C175.942 43.6 176.342 43.76 176.854 43.76C177.446 43.76 177.926 43.568 178.294 43.184C178.662 42.8 178.846 42.328 178.846 41.768V34.328H183.622V47H179.71ZM195.742 47L195.334 45.2C194.406 46.592 193.062 47.288 191.302 47.288C189.59 47.288 188.27 46.728 187.342 45.608C186.414 44.488 185.95 42.832 185.95 40.64C185.95 38.464 186.414 36.824 187.342 35.72C188.27 34.6 189.59 34.04 191.302 34.04C192.758 34.04 193.942 34.528 194.854 35.504V29.6H199.63V47H195.742ZM192.79 37.568C191.414 37.568 190.726 38.392 190.726 40.04V41.312C190.726 42.944 191.414 43.76 192.79 43.76C193.494 43.76 194.022 43.512 194.374 43.016C194.726 42.52 194.902 41.872 194.902 41.072V40.28C194.902 39.48 194.726 38.832 194.374 38.336C194.022 37.824 193.494 37.568 192.79 37.568ZM211.984 47L211.576 45.2C210.648 46.592 209.304 47.288 207.544 47.288C205.832 47.288 204.512 46.728 203.584 45.608C202.656 44.488 202.192 42.832 202.192 40.64C202.192 38.464 202.656 36.824 203.584 35.72C204.512 34.6 205.832 34.04 207.544 34.04C209 34.04 210.184 34.528 211.096 35.504V29.6H215.872V47H211.984ZM209.032 37.568C207.656 37.568 206.968 38.392 206.968 40.04V41.312C206.968 42.944 207.656 43.76 209.032 43.76C209.736 43.76 210.264 43.512 210.616 43.016C210.968 42.52 211.144 41.872 211.144 41.072V40.28C211.144 39.48 210.968 38.832 210.616 38.336C210.264 37.824 209.736 37.568 209.032 37.568ZM218.944 32.84V29.6H223.72V32.84H218.944ZM218.944 47V34.328H223.72V47H218.944ZM235.504 34.04C236.976 34.04 238.08 34.448 238.816 35.264C239.552 36.08 239.92 37.256 239.92 38.792V47H235.144V39.368C235.144 38.824 235 38.392 234.712 38.072C234.44 37.736 234.048 37.568 233.536 37.568C232.944 37.568 232.464 37.76 232.096 38.144C231.728 38.528 231.544 39 231.544 39.56V47H226.768V34.328H230.68L230.992 36.248C231.488 35.576 232.136 35.04 232.936 34.64C233.752 34.24 234.608 34.04 235.504 34.04ZM257.032 31.952C257.032 32.928 256.784 33.68 256.288 34.208C255.808 34.736 255.08 35.128 254.104 35.384C254.568 35.736 254.928 36.152 255.184 36.632C255.456 37.096 255.592 37.592 255.592 38.12C255.592 39.464 255.08 40.48 254.056 41.168C253.048 41.856 251.784 42.2 250.264 42.2H248.44C247.432 42.2 246.928 42.432 246.928 42.896C246.928 43.12 247.04 43.304 247.264 43.448C247.488 43.576 247.88 43.64 248.44 43.64H252.76C254.168 43.64 255.232 44.008 255.952 44.744C256.672 45.48 257.032 46.464 257.032 47.696C257.032 48.608 256.792 49.392 256.312 50.048C255.832 50.704 255.184 51.2 254.368 51.536C253.552 51.872 252.664 52.04 251.704 52.04H244.648C244.072 52.04 243.536 51.904 243.04 51.632C242.56 51.36 242.176 50.984 241.888 50.504C241.6 50.04 241.456 49.52 241.456 48.944C241.456 48.32 241.648 47.752 242.032 47.24C242.416 46.744 242.896 46.368 243.472 46.112C243.088 45.84 242.784 45.512 242.56 45.128C242.336 44.744 242.224 44.328 242.224 43.88C242.224 43.256 242.456 42.696 242.92 42.2C243.384 41.688 243.96 41.344 244.648 41.168C244.024 40.768 243.528 40.312 243.16 39.8C242.792 39.272 242.608 38.72 242.608 38.144C242.608 36.672 243.2 35.624 244.384 35C245.584 34.36 247.168 34.04 249.136 34.04C250 34.04 250.696 34.088 251.224 34.184C252.008 33.688 252.512 33.24 252.736 32.84C252.976 32.424 253.096 32.128 253.096 31.952H257.032ZM249.088 36.536C248.56 36.536 248.128 36.672 247.792 36.944C247.456 37.216 247.288 37.608 247.288 38.12C247.288 38.648 247.44 39.048 247.744 39.32C248.064 39.576 248.512 39.704 249.088 39.704C249.664 39.704 250.112 39.576 250.432 39.32C250.768 39.048 250.936 38.648 250.936 38.12C250.936 37.592 250.768 37.2 250.432 36.944C250.112 36.672 249.664 36.536 249.088 36.536ZM247.24 47C246.872 47 246.568 47.096 246.328 47.288C246.104 47.496 245.992 47.784 245.992 48.152C245.992 48.52 246.112 48.816 246.352 49.04C246.592 49.264 246.888 49.376 247.24 49.376H250.984C251.336 49.376 251.632 49.264 251.872 49.04C252.128 48.832 252.256 48.544 252.256 48.176C252.256 47.808 252.136 47.52 251.896 47.312C251.656 47.104 251.352 47 250.984 47H247.24Z" fill="white"/>
</svg>
