<svg width="398" height="334" viewBox="0 0 398 334" fill="none" xmlns="http://www.w3.org/2000/svg">
<mask id="path-1-inside-1" fill="white">
<path d="M388.391 293.412L397.46 292.945L390.909 286.655L356.995 254.094L327.768 149.399L327.609 148.831L291.482 92.607L301.75 98.914L295.132 86.279L279.89 57.1788L279.175 55.8123L277.721 55.2993L256.428 47.7562C255.247 46.0239 254.027 44.342 252.796 42.677C252.262 41.7604 251.231 41.4703 250.504 40.8017L248.166 38.9811L243.491 35.3441L224.78 20.7961L223.964 20.1612L222.938 20.0098L197.765 16.314L191.471 15.389L188.326 14.9264L186.749 14.6952C186.627 14.6826 186.501 14.6616 186.383 14.6321L191.904 11.6468L203.706 5.25579L190.319 4.27191L158.91 1.96356L157.737 1.87527L157.069 2.24528L157.094 1.96356L133.031 0L79.9137 37.8038L58.201 74.3043L0.984375 115.442L16.3355 205.358L43.2031 152.187L46.9326 150.736C47.3573 150.871 47.7777 151.022 48.1982 151.152C49.3208 151.506 50.4392 151.817 51.5619 152.136C52.1211 152.351 52.6761 152.3 53.2227 152.174C53.7693 152.09 54.3243 152.098 54.8751 152.065L68.1155 151.451L77.3363 151.022C78.5136 151.993 79.8927 153.133 81.4232 154.461C82.2389 155.164 83.0924 155.912 83.9712 156.715C84.4001 157.14 84.934 157.388 85.4975 157.619C86.0567 157.863 86.5823 158.191 87.1247 158.502C91.4596 161.067 96.3244 164.439 100.533 168.854C102.627 171.057 104.54 173.521 106.037 176.204C107.538 178.886 108.623 181.791 109.132 184.794C109.266 185.546 109.308 186.303 109.409 187.06L109.426 187.203V187.224L109.43 187.308L109.447 187.64L109.481 188.296L109.552 189.612C109.645 191.365 109.737 193.115 109.83 194.847C109.939 196.592 109.989 198.286 110.023 199.955C110.065 201.629 110.107 203.281 110.149 204.909C110.187 206.422 110.2 207.919 110.208 209.391L109.83 209.201L86.4141 256.033L80.6369 312.064L107.656 286.571L108.076 289.182L108.308 290.607L109.409 291.545L144.047 321.108L150.526 326.633V318.118V288.909L154.975 282.783L155.921 281.479L189.243 312.354L193.22 292.819L195.272 296.99L209.82 326.553L213.289 333.6L216.846 326.595L234.371 292.066L238.752 283.434C238.819 283.304 238.882 283.174 238.95 283.043L251.29 295.48L260.452 304.722C260.717 305.004 260.927 305.336 261.196 305.614L261.545 306.77L262.037 308.418L263.58 309.175L288.985 321.646L294.825 324.509L294.644 318.009L293.732 285.137L294.88 278.296L314.023 299.004L351.81 308.78L343.225 295.741L343.582 295.724L388.391 293.412ZM20.0692 180.547L9.55341 118.957L61.8044 81.3891L66.3958 82.97L67.2073 92.4346L76.4911 103.573L86.3594 116.729L84.5851 108.017L125.05 111.961L37.5521 145.947L20.0692 180.547ZM67.7539 143.605L64.9494 143.735L100.807 129.805C100.71 129.953 100.613 130.096 100.512 130.243L99.4737 131.786L92.2627 142.47L67.7539 143.605ZM318.228 291.978L296.528 268.504L296.986 265.783C297.146 264.841 297.453 263.929 297.52 262.975C297.575 262.016 297.545 261.049 297.562 260.082L297.583 257.189C297.587 255.259 297.634 253.333 297.6 251.391L297.537 245.584C297.478 243.646 297.457 241.707 297.36 239.757C296.637 241.569 295.986 243.389 295.296 245.21L293.345 250.68C292.681 252.505 292.096 254.338 291.47 256.163L290.545 258.904C290.246 259.821 289.906 260.733 289.641 261.65C289.393 262.575 289.384 263.542 289.229 264.48L288.758 267.297L287.812 272.935L285.92 284.212L285.857 284.59L285.865 284.973L286.609 311.727L268.584 302.881C268.584 302.881 268.58 302.881 268.58 302.876L265.922 293.979L264.346 288.707L263.572 286.075C263.29 285.2 263.114 284.296 262.887 283.405C262.651 282.518 262.201 281.698 261.798 280.861L260.57 278.351L259.321 275.857C258.896 275.025 258.493 274.188 258.051 273.364L255.449 268.394C254.545 266.75 253.666 265.094 252.72 263.466C252.821 265.35 252.993 267.213 253.14 269.084L253.691 274.663C253.779 275.597 253.897 276.518 253.998 277.447L254.326 280.222L254.671 282.989C254.793 283.909 254.868 284.847 255.154 285.717C255.453 286.583 255.802 287.437 256.046 288.324L256.382 289.455L239.126 272.065L234.804 260.826L233.652 257.824C233.454 257.328 233.248 256.832 233.16 256.289C233.084 256.028 232.836 255.839 232.634 255.629L231.999 255.015C231.154 254.191 230.28 253.375 229.359 252.581C228.901 252.185 228.468 251.778 227.98 251.387C227.496 251 227.03 250.6 226.521 250.226C226.395 250.848 226.315 251.454 226.218 252.068C226.117 252.682 226.071 253.274 225.991 253.88C225.84 255.087 225.739 256.272 225.663 257.454L225.604 258.337C225.592 258.631 225.537 258.938 225.655 259.182C225.949 259.64 226.13 260.145 226.319 260.649L227.471 263.651L232.092 275.66L232.386 276.429L232.967 277.014L233.122 277.174C232.672 278.078 232.21 278.981 231.756 279.89L227.374 288.522L213.407 316.041L202.327 293.53L196.87 282.442C196.285 281.197 195.608 280.003 195.1 278.721C194.881 278.065 194.557 277.459 194.082 276.925L192.741 275.29C191.858 274.192 190.924 273.12 190.016 272.04L187.195 268.836C186.228 267.785 185.269 266.725 184.252 265.695C184.445 267.129 184.702 268.537 184.95 269.946L185.765 274.134C186.068 275.517 186.35 276.909 186.678 278.275L187.157 280.335C187.233 280.735 187.363 281.109 187.527 281.466L184.344 297.099L160.546 275.05C160.769 274.579 160.979 274.1 161.202 273.629L162.135 271.577C162.741 270.194 163.367 268.827 163.952 267.427L165.722 263.248C166.281 261.831 166.865 260.435 167.395 258.997C166.193 259.947 165.049 260.935 163.876 261.907L160.449 264.883C159.301 265.872 158.196 266.893 157.069 267.898L155.408 269.424C154.865 269.942 154.277 270.425 153.768 270.967C153.268 271.518 152.965 272.208 152.523 272.801L151.224 274.592L148.626 278.17L143.429 285.331L142.68 286.365V287.639V309.608L115.615 286.512L115.325 284.704C115.157 283.628 114.972 282.551 114.816 281.466C114.753 280.928 114.741 280.373 114.652 279.835C114.577 279.297 114.366 278.775 114.173 278.254L113 275.126C112.197 273.04 111.377 270.963 110.523 268.89C110.086 267.856 109.661 266.818 109.199 265.783C108.745 264.753 108.303 263.719 107.811 262.693C107.668 263.824 107.572 264.942 107.462 266.065C107.345 267.192 107.269 268.306 107.177 269.429C107.013 271.665 106.891 273.898 106.777 276.127L106.756 276.631L90.6271 291.848L94.0917 258.265L110.048 226.348C110.061 226.428 110.074 226.508 110.095 226.583C110.359 227.79 110.612 228.938 110.847 230.01C111.314 232.167 111.764 234.047 112.138 235.611C112.479 237.166 112.819 238.398 113.017 239.235C113.235 240.076 113.349 240.526 113.349 240.526C113.349 240.526 113.521 240.093 113.841 239.29C114.127 238.478 114.606 237.288 115.102 235.762C115.603 234.236 116.233 232.377 116.856 230.237C117.154 229.165 117.474 228.026 117.814 226.819C118.016 226.213 118.046 225.591 117.974 224.952C117.936 224.313 117.987 223.661 117.982 222.993C118.012 220.327 118.088 217.438 118.083 214.382C118.054 211.316 118.1 208.112 118.003 204.753C117.961 203.071 117.915 201.364 117.873 199.636C117.839 197.899 117.785 196.154 117.68 194.435C117.587 192.702 117.495 190.953 117.402 189.2L117.331 187.884L117.293 187.224L117.276 186.892L117.263 186.665L117.242 186.48C117.125 185.487 117.053 184.482 116.877 183.499C116.208 179.542 114.779 175.745 112.886 172.377C110.999 169.001 108.673 166.028 106.214 163.442C101.269 158.271 95.8619 154.562 91.1107 151.745C90.522 151.388 89.9123 151.085 89.3741 150.694C89.2732 150.618 89.1681 150.551 89.063 150.48L94.5879 150.219L96.5556 150.131L97.6573 148.499L105.974 136.18L107.017 134.641C107.366 134.132 107.685 133.598 108.123 133.148C108.547 132.686 108.594 131.971 108.8 131.361C108.968 130.73 109.149 130.108 109.308 129.465C109.594 128.388 109.851 127.291 110.099 126.189L158.62 107.344L83.7652 100.053L74.8135 89.3064L73.775 77.2139L66.9929 74.8761L85.8128 43.2446L135.242 8.06448L145.081 8.86757C144.934 8.93484 144.791 8.99791 144.644 9.06519C144.135 9.32587 143.744 9.801 143.311 10.2046L142.033 11.445C141.188 12.2817 140.343 13.1185 139.51 13.9804L137.021 16.5789C136.21 17.4744 135.385 18.3448 134.591 19.2782C135.802 19.0932 136.975 18.8452 138.165 18.6307L141.68 17.8781C142.849 17.6216 144.005 17.3441 145.161 17.0666L146.889 16.6335C147.457 16.4737 148.067 16.3939 148.559 16.0953C149.038 15.7758 149.5 15.4352 150.013 15.1787L151.514 14.342L154.512 12.6686L159.491 9.8935L176.343 11.1297L168.514 15.3637L163.607 18.0211C162.783 18.4583 161.988 18.9419 161.109 19.2656C160.676 19.4464 160.294 19.7155 159.953 20.0603L158.902 21.0526C157.502 22.3686 156.123 23.7309 154.756 25.1185C154.075 25.8164 153.398 26.5186 152.734 27.2376C152.074 27.9692 151.397 28.6756 150.749 29.4366C151.741 29.3147 152.7 29.1381 153.676 28.9825C154.643 28.8185 155.601 28.6377 156.556 28.4485C158.465 28.0659 160.357 27.6581 162.228 27.2082L163.632 26.8718C164.111 26.7793 164.545 26.6027 164.931 26.342C165.684 25.7828 166.525 25.3834 167.341 24.9335L172.247 22.2803L177.575 19.396L177.974 19.5936C178.971 20.0897 179.98 20.5396 180.98 21.0148C181.985 21.4478 182.986 21.9608 184.004 22.3266C184.521 22.4569 185.067 22.3813 185.589 22.4822L187.161 22.7092L190.311 23.1717L196.605 24.0967L220.756 27.6413L238.647 41.5586L241.729 43.9552C240.543 43.8501 239.358 43.7492 238.163 43.6609C237.15 43.5894 236.141 43.4927 235.119 43.4507C234.098 43.4002 233.084 43.3329 232.054 43.3077C232.87 43.9384 233.702 44.5271 234.526 45.1283C235.351 45.7422 236.191 46.2972 237.028 46.8816C238.693 48.0463 240.375 49.1732 242.065 50.2748L244.605 51.9104C245.025 52.1921 245.488 52.3477 245.971 52.4612C246.455 52.5747 246.917 52.7345 247.372 52.8985L252.913 54.862L273.634 62.1991L281.517 77.2475L281.492 77.2685L277.536 74.834C276.867 74.4094 276.173 74.031 275.526 73.5684C274.899 73.0807 274.256 72.614 273.457 72.408C271.91 71.8992 270.375 71.3778 268.815 70.9027C267.264 70.4108 265.691 69.944 264.11 69.4984C262.529 69.0527 260.932 68.6322 259.313 68.2496C260.385 69.5194 261.482 70.7555 262.597 71.9665C263.711 73.1774 264.833 74.3673 265.973 75.5278C267.108 76.7051 268.264 77.8403 269.412 78.9882C269.959 79.6063 270.665 79.9721 271.384 80.3085C272.086 80.6785 272.742 81.12 273.419 81.5278L276.047 83.1466L308.129 133.072C308.124 133.072 308.12 133.068 308.116 133.064C303.167 129.675 298.218 126.29 294.501 123.751C294.278 123.583 294.03 123.456 293.841 123.255C293.669 123.023 293.45 122.889 293.135 122.893C292.542 122.851 291.983 122.813 291.453 122.775C290.393 122.708 289.43 122.704 288.644 122.695C287.866 122.67 287.21 122.716 286.782 122.721C286.34 122.742 286.105 122.758 286.105 122.758C286.105 122.758 286.18 122.981 286.315 123.402C286.466 123.805 286.664 124.432 286.967 125.147C287.261 125.878 287.614 126.774 288.06 127.741C288.287 128.22 288.526 128.729 288.779 129.267C288.884 129.566 289.098 129.721 289.372 129.797C289.628 129.898 289.834 130.083 290.074 130.234C293.786 132.774 298.735 136.163 303.684 139.548C308.633 142.936 313.582 146.321 317.295 148.865C317.522 149.029 317.766 149.159 317.951 149.365C318.127 149.584 318.329 149.756 318.636 149.761C318.72 149.765 318.787 149.769 318.867 149.777L320.36 152.098L343.868 236.317L340.487 231.684C339.777 230.78 339.239 229.754 338.524 228.854C337.784 227.979 336.905 227.193 336.106 226.356L331.191 221.42L326.187 216.547C325.359 215.727 324.497 214.941 323.648 214.138C322.803 213.335 321.949 212.536 321.083 211.749C321.571 212.817 322.067 213.869 322.576 214.924C323.084 215.975 323.572 217.039 324.093 218.077L327.205 224.33L330.409 230.519C330.96 231.536 331.439 232.609 332.049 233.584C332.688 234.539 333.503 235.363 334.143 236.317L349.897 257.908L349.944 258.08L350.007 258.059L350.377 258.568L350.578 258.846L350.827 259.085L378.922 286.054L344.414 287.832L337.838 283.745C337.204 283.354 336.594 282.917 335.98 282.484C335.37 282.051 334.714 281.689 334.021 281.391L329.85 279.6L325.658 277.846C324.257 277.266 322.84 276.711 321.432 276.143C320.019 275.584 318.623 275 317.189 274.47C315.764 273.936 314.347 273.381 312.901 272.872C313.994 273.94 315.121 274.966 316.235 276.009C317.341 277.06 318.484 278.052 319.611 279.07C320.742 280.083 321.869 281.105 323.009 282.106L326.44 285.087L327.255 285.785L334.033 296.086L318.228 291.978Z"/>
</mask>
<path d="M388.391 293.412L397.46 292.945L390.909 286.655L356.995 254.094L327.768 149.399L327.609 148.831L291.482 92.607L301.75 98.914L295.132 86.279L279.89 57.1788L279.175 55.8123L277.721 55.2993L256.428 47.7562C255.247 46.0239 254.027 44.342 252.796 42.677C252.262 41.7604 251.231 41.4703 250.504 40.8017L248.166 38.9811L243.491 35.3441L224.78 20.7961L223.964 20.1612L222.938 20.0098L197.765 16.314L191.471 15.389L188.326 14.9264L186.749 14.6952C186.627 14.6826 186.501 14.6616 186.383 14.6321L191.904 11.6468L203.706 5.25579L190.319 4.27191L158.91 1.96356L157.737 1.87527L157.069 2.24528L157.094 1.96356L133.031 0L79.9137 37.8038L58.201 74.3043L0.984375 115.442L16.3355 205.358L43.2031 152.187L46.9326 150.736C47.3573 150.871 47.7777 151.022 48.1982 151.152C49.3208 151.506 50.4392 151.817 51.5619 152.136C52.1211 152.351 52.6761 152.3 53.2227 152.174C53.7693 152.09 54.3243 152.098 54.8751 152.065L68.1155 151.451L77.3363 151.022C78.5136 151.993 79.8927 153.133 81.4232 154.461C82.2389 155.164 83.0924 155.912 83.9712 156.715C84.4001 157.14 84.934 157.388 85.4975 157.619C86.0567 157.863 86.5823 158.191 87.1247 158.502C91.4596 161.067 96.3244 164.439 100.533 168.854C102.627 171.057 104.54 173.521 106.037 176.204C107.538 178.886 108.623 181.791 109.132 184.794C109.266 185.546 109.308 186.303 109.409 187.06L109.426 187.203V187.224L109.43 187.308L109.447 187.64L109.481 188.296L109.552 189.612C109.645 191.365 109.737 193.115 109.83 194.847C109.939 196.592 109.989 198.286 110.023 199.955C110.065 201.629 110.107 203.281 110.149 204.909C110.187 206.422 110.2 207.919 110.208 209.391L109.83 209.201L86.4141 256.033L80.6369 312.064L107.656 286.571L108.076 289.182L108.308 290.607L109.409 291.545L144.047 321.108L150.526 326.633V318.118V288.909L154.975 282.783L155.921 281.479L189.243 312.354L193.22 292.819L195.272 296.99L209.82 326.553L213.289 333.6L216.846 326.595L234.371 292.066L238.752 283.434C238.819 283.304 238.882 283.174 238.95 283.043L251.29 295.48L260.452 304.722C260.717 305.004 260.927 305.336 261.196 305.614L261.545 306.77L262.037 308.418L263.58 309.175L288.985 321.646L294.825 324.509L294.644 318.009L293.732 285.137L294.88 278.296L314.023 299.004L351.81 308.78L343.225 295.741L343.582 295.724L388.391 293.412ZM20.0692 180.547L9.55341 118.957L61.8044 81.3891L66.3958 82.97L67.2073 92.4346L76.4911 103.573L86.3594 116.729L84.5851 108.017L125.05 111.961L37.5521 145.947L20.0692 180.547ZM67.7539 143.605L64.9494 143.735L100.807 129.805C100.71 129.953 100.613 130.096 100.512 130.243L99.4737 131.786L92.2627 142.47L67.7539 143.605ZM318.228 291.978L296.528 268.504L296.986 265.783C297.146 264.841 297.453 263.929 297.52 262.975C297.575 262.016 297.545 261.049 297.562 260.082L297.583 257.189C297.587 255.259 297.634 253.333 297.6 251.391L297.537 245.584C297.478 243.646 297.457 241.707 297.36 239.757C296.637 241.569 295.986 243.389 295.296 245.21L293.345 250.68C292.681 252.505 292.096 254.338 291.47 256.163L290.545 258.904C290.246 259.821 289.906 260.733 289.641 261.65C289.393 262.575 289.384 263.542 289.229 264.48L288.758 267.297L287.812 272.935L285.92 284.212L285.857 284.59L285.865 284.973L286.609 311.727L268.584 302.881C268.584 302.881 268.58 302.881 268.58 302.876L265.922 293.979L264.346 288.707L263.572 286.075C263.29 285.2 263.114 284.296 262.887 283.405C262.651 282.518 262.201 281.698 261.798 280.861L260.57 278.351L259.321 275.857C258.896 275.025 258.493 274.188 258.051 273.364L255.449 268.394C254.545 266.75 253.666 265.094 252.72 263.466C252.821 265.35 252.993 267.213 253.14 269.084L253.691 274.663C253.779 275.597 253.897 276.518 253.998 277.447L254.326 280.222L254.671 282.989C254.793 283.909 254.868 284.847 255.154 285.717C255.453 286.583 255.802 287.437 256.046 288.324L256.382 289.455L239.126 272.065L234.804 260.826L233.652 257.824C233.454 257.328 233.248 256.832 233.16 256.289C233.084 256.028 232.836 255.839 232.634 255.629L231.999 255.015C231.154 254.191 230.28 253.375 229.359 252.581C228.901 252.185 228.468 251.778 227.98 251.387C227.496 251 227.03 250.6 226.521 250.226C226.395 250.848 226.315 251.454 226.218 252.068C226.117 252.682 226.071 253.274 225.991 253.88C225.84 255.087 225.739 256.272 225.663 257.454L225.604 258.337C225.592 258.631 225.537 258.938 225.655 259.182C225.949 259.64 226.13 260.145 226.319 260.649L227.471 263.651L232.092 275.66L232.386 276.429L232.967 277.014L233.122 277.174C232.672 278.078 232.21 278.981 231.756 279.89L227.374 288.522L213.407 316.041L202.327 293.53L196.87 282.442C196.285 281.197 195.608 280.003 195.1 278.721C194.881 278.065 194.557 277.459 194.082 276.925L192.741 275.29C191.858 274.192 190.924 273.12 190.016 272.04L187.195 268.836C186.228 267.785 185.269 266.725 184.252 265.695C184.445 267.129 184.702 268.537 184.95 269.946L185.765 274.134C186.068 275.517 186.35 276.909 186.678 278.275L187.157 280.335C187.233 280.735 187.363 281.109 187.527 281.466L184.344 297.099L160.546 275.05C160.769 274.579 160.979 274.1 161.202 273.629L162.135 271.577C162.741 270.194 163.367 268.827 163.952 267.427L165.722 263.248C166.281 261.831 166.865 260.435 167.395 258.997C166.193 259.947 165.049 260.935 163.876 261.907L160.449 264.883C159.301 265.872 158.196 266.893 157.069 267.898L155.408 269.424C154.865 269.942 154.277 270.425 153.768 270.967C153.268 271.518 152.965 272.208 152.523 272.801L151.224 274.592L148.626 278.17L143.429 285.331L142.68 286.365V287.639V309.608L115.615 286.512L115.325 284.704C115.157 283.628 114.972 282.551 114.816 281.466C114.753 280.928 114.741 280.373 114.652 279.835C114.577 279.297 114.366 278.775 114.173 278.254L113 275.126C112.197 273.04 111.377 270.963 110.523 268.89C110.086 267.856 109.661 266.818 109.199 265.783C108.745 264.753 108.303 263.719 107.811 262.693C107.668 263.824 107.572 264.942 107.462 266.065C107.345 267.192 107.269 268.306 107.177 269.429C107.013 271.665 106.891 273.898 106.777 276.127L106.756 276.631L90.6271 291.848L94.0917 258.265L110.048 226.348C110.061 226.428 110.074 226.508 110.095 226.583C110.359 227.79 110.612 228.938 110.847 230.01C111.314 232.167 111.764 234.047 112.138 235.611C112.479 237.166 112.819 238.398 113.017 239.235C113.235 240.076 113.349 240.526 113.349 240.526C113.349 240.526 113.521 240.093 113.841 239.29C114.127 238.478 114.606 237.288 115.102 235.762C115.603 234.236 116.233 232.377 116.856 230.237C117.154 229.165 117.474 228.026 117.814 226.819C118.016 226.213 118.046 225.591 117.974 224.952C117.936 224.313 117.987 223.661 117.982 222.993C118.012 220.327 118.088 217.438 118.083 214.382C118.054 211.316 118.1 208.112 118.003 204.753C117.961 203.071 117.915 201.364 117.873 199.636C117.839 197.899 117.785 196.154 117.68 194.435C117.587 192.702 117.495 190.953 117.402 189.2L117.331 187.884L117.293 187.224L117.276 186.892L117.263 186.665L117.242 186.48C117.125 185.487 117.053 184.482 116.877 183.499C116.208 179.542 114.779 175.745 112.886 172.377C110.999 169.001 108.673 166.028 106.214 163.442C101.269 158.271 95.8619 154.562 91.1107 151.745C90.522 151.388 89.9123 151.085 89.3741 150.694C89.2732 150.618 89.1681 150.551 89.063 150.48L94.5879 150.219L96.5556 150.131L97.6573 148.499L105.974 136.18L107.017 134.641C107.366 134.132 107.685 133.598 108.123 133.148C108.547 132.686 108.594 131.971 108.8 131.361C108.968 130.73 109.149 130.108 109.308 129.465C109.594 128.388 109.851 127.291 110.099 126.189L158.62 107.344L83.7652 100.053L74.8135 89.3064L73.775 77.2139L66.9929 74.8761L85.8128 43.2446L135.242 8.06448L145.081 8.86757C144.934 8.93484 144.791 8.99791 144.644 9.06519C144.135 9.32587 143.744 9.801 143.311 10.2046L142.033 11.445C141.188 12.2817 140.343 13.1185 139.51 13.9804L137.021 16.5789C136.21 17.4744 135.385 18.3448 134.591 19.2782C135.802 19.0932 136.975 18.8452 138.165 18.6307L141.68 17.8781C142.849 17.6216 144.005 17.3441 145.161 17.0666L146.889 16.6335C147.457 16.4737 148.067 16.3939 148.559 16.0953C149.038 15.7758 149.5 15.4352 150.013 15.1787L151.514 14.342L154.512 12.6686L159.491 9.8935L176.343 11.1297L168.514 15.3637L163.607 18.0211C162.783 18.4583 161.988 18.9419 161.109 19.2656C160.676 19.4464 160.294 19.7155 159.953 20.0603L158.902 21.0526C157.502 22.3686 156.123 23.7309 154.756 25.1185C154.075 25.8164 153.398 26.5186 152.734 27.2376C152.074 27.9692 151.397 28.6756 150.749 29.4366C151.741 29.3147 152.7 29.1381 153.676 28.9825C154.643 28.8185 155.601 28.6377 156.556 28.4485C158.465 28.0659 160.357 27.6581 162.228 27.2082L163.632 26.8718C164.111 26.7793 164.545 26.6027 164.931 26.342C165.684 25.7828 166.525 25.3834 167.341 24.9335L172.247 22.2803L177.575 19.396L177.974 19.5936C178.971 20.0897 179.98 20.5396 180.98 21.0148C181.985 21.4478 182.986 21.9608 184.004 22.3266C184.521 22.4569 185.067 22.3813 185.589 22.4822L187.161 22.7092L190.311 23.1717L196.605 24.0967L220.756 27.6413L238.647 41.5586L241.729 43.9552C240.543 43.8501 239.358 43.7492 238.163 43.6609C237.15 43.5894 236.141 43.4927 235.119 43.4507C234.098 43.4002 233.084 43.3329 232.054 43.3077C232.87 43.9384 233.702 44.5271 234.526 45.1283C235.351 45.7422 236.191 46.2972 237.028 46.8816C238.693 48.0463 240.375 49.1732 242.065 50.2748L244.605 51.9104C245.025 52.1921 245.488 52.3477 245.971 52.4612C246.455 52.5747 246.917 52.7345 247.372 52.8985L252.913 54.862L273.634 62.1991L281.517 77.2475L281.492 77.2685L277.536 74.834C276.867 74.4094 276.173 74.031 275.526 73.5684C274.899 73.0807 274.256 72.614 273.457 72.408C271.91 71.8992 270.375 71.3778 268.815 70.9027C267.264 70.4108 265.691 69.944 264.11 69.4984C262.529 69.0527 260.932 68.6322 259.313 68.2496C260.385 69.5194 261.482 70.7555 262.597 71.9665C263.711 73.1774 264.833 74.3673 265.973 75.5278C267.108 76.7051 268.264 77.8403 269.412 78.9882C269.959 79.6063 270.665 79.9721 271.384 80.3085C272.086 80.6785 272.742 81.12 273.419 81.5278L276.047 83.1466L308.129 133.072C308.124 133.072 308.12 133.068 308.116 133.064C303.167 129.675 298.218 126.29 294.501 123.751C294.278 123.583 294.03 123.456 293.841 123.255C293.669 123.023 293.45 122.889 293.135 122.893C292.542 122.851 291.983 122.813 291.453 122.775C290.393 122.708 289.43 122.704 288.644 122.695C287.866 122.67 287.21 122.716 286.782 122.721C286.34 122.742 286.105 122.758 286.105 122.758C286.105 122.758 286.18 122.981 286.315 123.402C286.466 123.805 286.664 124.432 286.967 125.147C287.261 125.878 287.614 126.774 288.06 127.741C288.287 128.22 288.526 128.729 288.779 129.267C288.884 129.566 289.098 129.721 289.372 129.797C289.628 129.898 289.834 130.083 290.074 130.234C293.786 132.774 298.735 136.163 303.684 139.548C308.633 142.936 313.582 146.321 317.295 148.865C317.522 149.029 317.766 149.159 317.951 149.365C318.127 149.584 318.329 149.756 318.636 149.761C318.72 149.765 318.787 149.769 318.867 149.777L320.36 152.098L343.868 236.317L340.487 231.684C339.777 230.78 339.239 229.754 338.524 228.854C337.784 227.979 336.905 227.193 336.106 226.356L331.191 221.42L326.187 216.547C325.359 215.727 324.497 214.941 323.648 214.138C322.803 213.335 321.949 212.536 321.083 211.749C321.571 212.817 322.067 213.869 322.576 214.924C323.084 215.975 323.572 217.039 324.093 218.077L327.205 224.33L330.409 230.519C330.96 231.536 331.439 232.609 332.049 233.584C332.688 234.539 333.503 235.363 334.143 236.317L349.897 257.908L349.944 258.08L350.007 258.059L350.377 258.568L350.578 258.846L350.827 259.085L378.922 286.054L344.414 287.832L337.838 283.745C337.204 283.354 336.594 282.917 335.98 282.484C335.37 282.051 334.714 281.689 334.021 281.391L329.85 279.6L325.658 277.846C324.257 277.266 322.84 276.711 321.432 276.143C320.019 275.584 318.623 275 317.189 274.47C315.764 273.936 314.347 273.381 312.901 272.872C313.994 273.94 315.121 274.966 316.235 276.009C317.341 277.06 318.484 278.052 319.611 279.07C320.742 280.083 321.869 281.105 323.009 282.106L326.44 285.087L327.255 285.785L334.033 296.086L318.228 291.978Z" fill="white" stroke="white" stroke-width="2" mask="url(#path-1-inside-1)"/>
<path d="M159.982 56.3335L159.974 56.3411L159.967 56.3489C159.824 56.5007 159.62 56.5795 159.288 56.6247L159.288 56.6245L159.275 56.6266C158.957 56.6785 158.63 56.807 158.367 56.9101C158.283 56.9432 158.205 56.9738 158.136 56.9982L158.136 56.9982L158.127 57.0016C157.417 57.2708 156.671 57.5545 155.9 57.8479C155.113 58.1473 154.299 58.4569 153.469 58.7717L152.949 58.9686L153.199 59.4645C154.333 61.7114 155.278 64.6406 154.998 67.9512L154.998 67.9513C154.626 72.3586 152.219 76.2752 147.751 79.6004C144.865 81.7453 141.756 82.815 138.471 82.815C137.66 82.815 136.845 82.7538 136.023 82.6235L136.021 82.6233C132.31 82.0476 128.9 80.1896 126.067 78.059C123.237 75.9308 121.013 73.552 119.675 71.9754L119.445 71.7041L119.113 71.8326C118.608 72.0284 118.114 72.2152 117.63 72.3982C117.292 72.5261 116.959 72.6521 116.63 72.778L116.63 72.7778L116.62 72.7822C116.513 72.8257 116.415 72.8619 116.308 72.9011C116.245 72.9242 116.179 72.9484 116.107 72.9756C115.927 73.0442 115.73 73.1252 115.537 73.2344L115.514 73.2472L115.493 73.2623C115.267 73.4237 115.052 73.4877 114.812 73.459L114.795 73.457L114.778 73.4561C114.03 73.4183 113.314 73.3846 112.646 73.3551C111.529 73.2956 110.517 73.1979 109.637 73.113C109.471 73.097 109.31 73.0814 109.153 73.0667L109.153 73.0666L109.147 73.0661C108.473 73.0109 107.903 72.933 107.43 72.8682C107.251 72.8439 107.087 72.8213 106.935 72.8026C107.038 72.6851 107.149 72.5554 107.268 72.4149C107.576 72.0521 107.946 71.6169 108.412 71.1311L108.412 71.1312L108.416 71.1268C108.518 71.0179 108.623 70.9055 108.73 70.79C109.337 70.1393 110.038 69.3883 110.841 68.5884C111.243 68.1935 111.672 67.7744 112.122 67.3357C112.202 67.2571 112.283 67.1779 112.365 67.098L112.38 67.084L112.393 67.0688C112.548 66.8903 112.749 66.7978 113.027 66.7662L113.048 66.7638L113.068 66.7597C113.287 66.7159 113.491 66.6456 113.673 66.5767C113.751 66.5471 113.82 66.5198 113.886 66.4938C113.988 66.4537 114.082 66.4167 114.188 66.3793L114.188 66.3794L114.199 66.3753C119.858 64.2267 127.401 61.3591 134.944 58.4916C140.09 56.5394 145.236 54.5833 149.782 52.8551C151.904 52.0485 153.895 51.2915 155.694 50.6078L155.695 50.6079L155.705 50.6039C155.776 50.5749 155.858 50.5445 155.946 50.512C156.21 50.4142 156.528 50.2959 156.8 50.1294L156.8 50.1295L156.811 50.1226C157.093 49.9397 157.294 49.8629 157.508 49.8817L157.519 49.8826L157.529 49.8831C157.759 49.8934 157.984 49.9033 158.206 49.913C158.71 49.9351 159.194 49.9563 159.656 49.9796C160.994 50.059 162.174 50.1592 163.146 50.2713L163.146 50.2714L163.152 50.272C163.846 50.3435 164.438 50.4307 164.92 50.5018C165.102 50.5286 165.268 50.5531 165.419 50.5736C165.324 50.6848 165.22 50.8086 165.107 50.9436C164.792 51.321 164.404 51.7858 163.924 52.3081L163.924 52.308L163.92 52.3124C163.263 53.0437 162.455 53.8941 161.506 54.8473C161.027 55.3134 160.519 55.8088 159.982 56.3335ZM143.668 74.1085L143.669 74.1079C146.389 72.0758 147.963 69.8209 148.169 67.3801C148.355 65.217 147.47 63.1943 146.665 61.8131L146.452 61.4464L146.055 61.5976C144.533 62.1777 142.974 62.7705 141.401 63.3675L140.52 63.7019L141.291 64.2439C142.416 65.0354 143.063 66.1003 143.063 67.2323C143.063 68.3322 142.457 69.3697 141.394 70.1504C140.331 70.9309 138.839 71.4288 137.168 71.4288C134.087 71.4288 131.728 69.7611 131.343 67.8162L131.228 67.2354L130.675 67.4462C130.3 67.5887 129.927 67.7309 129.556 67.8724C128.7 68.1985 127.854 68.5212 127.021 68.8378L126.3 69.1119L126.845 69.6581C129.429 72.2511 133.227 75.2647 137.096 75.8582L137.097 75.8583C139.452 76.2165 141.616 75.6359 143.668 74.1085Z" fill="white" stroke="white"/>
<path d="M190.831 169.624C190.564 169.467 190.26 169.284 189.922 169.076C188.57 168.235 186.696 166.971 184.57 165.338L184.569 165.337C182.443 163.708 180.067 161.704 177.643 159.444L177.64 159.441C177.089 158.936 176.548 158.409 175.992 157.868C175.936 157.813 175.879 157.758 175.822 157.702L175.819 157.7C175.205 157.111 174.596 156.506 174.001 155.885L174.001 155.885L173.994 155.879C172.991 154.872 172.02 153.819 171.037 152.753C170.822 152.521 170.607 152.288 170.392 152.054C170.191 151.824 169.99 151.595 169.789 151.366C168.828 150.269 167.872 149.178 166.968 148.07L166.968 148.07L166.964 148.065C165.852 146.736 164.802 145.394 163.806 144.066L163.805 144.065C161.813 141.424 160.068 138.847 158.664 136.565C157.26 134.284 156.196 132.288 155.496 130.856L155.496 130.856L155.494 130.851C155.317 130.499 155.173 130.185 155.048 129.905C155.312 130.057 155.608 130.231 155.942 130.445L155.942 130.445L155.947 130.448C157.295 131.289 159.17 132.558 161.298 134.188C163.425 135.818 165.805 137.821 168.223 140.081L168.225 140.083C169.443 141.209 170.668 142.396 171.877 143.642L171.877 143.642L171.881 143.647C172.938 144.707 173.963 145.816 174.999 146.938C175.162 147.115 175.325 147.291 175.489 147.468C175.666 147.669 175.843 147.869 176.019 148.07C177.011 149.195 177.992 150.307 178.92 151.447L178.92 151.447L178.925 151.453C179.48 152.112 180.018 152.78 180.54 153.452L180.542 153.455C180.653 153.596 180.764 153.736 180.874 153.874C181.292 154.403 181.699 154.917 182.083 155.442L182.083 155.442L182.088 155.448C184.083 158.089 185.823 160.661 187.228 162.947L190.831 169.624ZM190.831 169.624C190.703 169.342 190.553 169.02 190.382 168.662C189.691 167.228 188.628 165.229 187.228 162.947L190.831 169.624Z" fill="white" stroke="white"/>
<path d="M203.919 172.298C203.748 172.202 203.546 172.086 203.321 171.948C202.57 171.482 201.568 170.772 200.515 169.834L200.513 169.832C199.453 168.9 198.346 167.732 197.29 166.406C196.239 165.087 195.271 163.591 194.412 162.026C193.561 160.454 192.834 158.828 192.294 157.224L203.919 172.298ZM203.919 172.298C203.931 172.102 203.941 171.871 203.946 171.608C203.959 170.725 203.905 169.497 203.687 168.103L203.687 168.1C203.477 166.707 203.098 165.146 202.556 163.539C202.015 161.939 201.284 160.31 200.43 158.747C199.567 157.183 198.594 155.69 197.539 154.37C196.478 153.044 195.371 151.876 194.311 150.943L194.309 150.941L194.309 150.941C193.255 150.003 192.256 149.292 191.507 148.822L191.5 148.817L191.501 148.817C191.328 148.705 191.16 148.608 191.005 148.522C190.98 148.508 190.954 148.494 190.928 148.48C190.926 148.511 190.924 148.541 190.922 148.572C190.909 148.749 190.899 148.943 190.899 149.151V149.158L190.899 149.158C190.886 150.036 190.943 151.265 191.162 152.66L191.162 152.663L191.162 152.663C191.372 154.056 191.755 155.621 192.294 157.224L203.919 172.298Z" fill="white" stroke="white"/>
<path d="M135.476 183.925L135.476 183.926C135.831 186.296 136.111 189.054 136.241 192.009L136.241 192.01C136.307 193.482 136.341 195.003 136.32 196.543H136.32L136.32 196.548C136.316 198.092 136.274 199.659 136.186 201.222C136.098 202.788 135.977 204.356 135.814 205.89L135.814 205.89L135.813 205.896C135.743 206.659 135.655 207.416 135.551 208.165L135.551 208.168C135.528 208.341 135.505 208.512 135.483 208.682C135.408 209.265 135.334 209.829 135.238 210.386L135.238 210.386L135.237 210.395C134.789 213.309 134.213 216.024 133.6 218.34C132.982 220.651 132.332 222.572 131.817 223.909C131.685 224.246 131.562 224.546 131.453 224.806C131.373 224.535 131.284 224.223 131.19 223.873C130.824 222.489 130.382 220.51 130.028 218.146L130.028 218.145C129.669 215.772 129.397 213.015 129.272 210.067L129.272 210.067L129.271 210.057C129.236 209.497 129.226 208.932 129.215 208.346C129.212 208.173 129.209 207.997 129.205 207.82L129.205 207.817C129.184 207.065 129.184 206.303 129.197 205.53L129.197 205.53L129.197 205.524C129.201 203.978 129.251 202.414 129.335 200.845C129.422 199.28 129.548 197.721 129.715 196.183L129.715 196.183L129.716 196.177C129.862 194.646 130.066 193.139 130.292 191.677L130.292 191.676C130.74 188.759 131.316 186.043 131.93 183.732C132.543 181.419 133.19 179.498 133.704 178.162L133.704 178.162L133.706 178.156C133.833 177.817 133.954 177.526 134.063 177.27C134.144 177.535 134.232 177.836 134.321 178.189L134.321 178.189L134.322 178.193C134.688 179.581 135.126 181.556 135.476 183.925Z" fill="white" stroke="white"/>
<path d="M142.315 227.986C141.978 226.129 141.776 224.252 141.747 222.472C141.718 220.683 141.826 218.992 142.048 217.526L142.048 217.526L142.049 217.523C142.263 216.055 142.58 214.807 142.859 213.932L142.859 213.932L142.862 213.921C142.938 213.663 143.014 213.46 143.086 213.275C143.217 213.421 143.361 213.583 143.528 213.802L143.528 213.802L143.535 213.811C144.111 214.53 144.848 215.58 145.575 216.876L145.576 216.877C146.304 218.166 147.008 219.708 147.622 221.389C148.23 223.067 148.711 224.89 149.059 226.737C149.396 228.595 149.603 230.468 149.636 232.248C149.669 234.035 149.557 235.726 149.338 237.194C149.12 238.663 148.802 239.91 148.52 240.789C148.438 241.042 148.359 241.265 148.29 241.453C148.157 241.302 148.003 241.121 147.834 240.914C147.257 240.19 146.52 239.145 145.79 237.85L145.789 237.849C145.057 236.561 144.353 235.018 143.744 233.338L142.315 227.986ZM142.315 227.986C142.659 229.838 143.136 231.661 143.744 233.338L142.315 227.986ZM142.382 213.78C142.096 214.68 141.772 215.954 141.554 217.451C141.327 218.948 141.217 220.668 141.247 222.48C141.276 224.292 141.482 226.197 141.823 228.076L142.382 213.78Z" fill="white" stroke="white"/>
<path d="M278.368 189.263C278.493 189.458 278.618 189.651 278.743 189.844C279.114 190.417 279.48 190.983 279.823 191.559C281.702 194.595 283.33 197.529 284.62 200.115C285.915 202.701 286.878 204.938 287.505 206.544L278.368 189.263ZM278.368 189.263C277.876 188.485 277.363 187.712 276.829 186.942L278.368 189.263ZM284.173 200.339L284.173 200.339C285.461 202.911 286.418 205.133 287.039 206.725C287.191 207.118 287.323 207.472 287.435 207.783C287.172 207.583 286.872 207.352 286.542 207.09C285.212 206.027 283.37 204.453 281.301 202.459L281.3 202.458C279.222 200.464 276.92 198.053 274.587 195.364L274.587 195.364L274.583 195.359C274.135 194.858 273.704 194.34 273.262 193.809C273.121 193.64 272.979 193.469 272.835 193.298L272.833 193.295C272.241 192.599 271.661 191.885 271.088 191.154L271.088 191.154L271.083 191.147C270.089 189.924 269.132 188.65 268.166 187.365C267.992 187.132 267.817 186.9 267.641 186.667C267.495 186.462 267.348 186.258 267.201 186.054C266.242 184.717 265.291 183.392 264.396 182.048L264.396 182.048L264.393 182.044C263.343 180.504 262.351 178.959 261.421 177.443L261.42 177.441C259.544 174.414 257.928 171.496 256.64 168.924C255.352 166.352 254.391 164.129 253.77 162.541L253.77 162.541L253.769 162.538C253.614 162.151 253.487 161.804 253.378 161.498C253.639 161.693 253.931 161.918 254.254 162.182L254.254 162.182L254.257 162.184C255.587 163.251 257.421 164.826 259.496 166.821C261.566 168.817 263.873 171.228 266.205 173.916L266.206 173.917C267.379 175.258 268.559 176.664 269.714 178.124L269.714 178.124L269.718 178.13C270.719 179.358 271.686 180.641 272.66 181.933C272.827 182.155 272.995 182.378 273.164 182.601C273.34 182.847 273.517 183.093 273.693 183.338C274.623 184.633 275.546 185.917 276.413 187.219L276.413 187.219L276.418 187.227C276.948 187.991 277.457 188.759 277.946 189.53L277.947 189.533C278.075 189.732 278.201 189.928 278.327 190.122C278.696 190.692 279.056 191.248 279.393 191.815L279.393 191.815L279.398 191.822C281.27 194.845 282.889 197.767 284.173 200.339Z" fill="white" stroke="white"/>
<path d="M286.474 178.681C286.493 178.646 286.514 178.61 286.533 178.574C286.577 178.582 286.622 178.59 286.664 178.597C286.695 178.602 286.724 178.606 286.749 178.611C286.866 178.631 286.974 178.654 287.067 178.684L287.076 178.687L287.084 178.69C287.153 178.71 287.221 178.728 287.289 178.747C287.526 178.812 287.756 178.876 287.974 178.971L287.986 178.976L287.999 178.981C288.341 179.107 288.698 179.244 289.017 179.415L289.017 179.415L289.025 179.419C289.71 179.771 290.375 180.239 290.96 180.804C291.53 181.366 292.001 182.036 292.351 182.764C292.698 183.497 292.925 184.282 293.007 185.083C293.086 185.894 293.038 186.71 292.884 187.46L292.884 187.46L292.883 187.466C292.816 187.816 292.705 188.167 292.596 188.509L292.586 188.54L292.583 188.552L292.579 188.564C292.52 188.79 292.429 189.004 292.334 189.226C292.305 189.293 292.276 189.361 292.248 189.43L292.244 189.439L292.24 189.449C292.207 189.541 292.158 189.639 292.102 189.742C292.088 189.768 292.071 189.799 292.053 189.831C292.035 189.864 292.016 189.899 291.997 189.932C291.958 189.925 291.917 189.918 291.879 189.911C291.846 189.905 291.815 189.9 291.788 189.895C291.673 189.873 291.563 189.85 291.463 189.818L291.453 189.814L291.443 189.812C291.404 189.801 291.364 189.79 291.324 189.779C291.068 189.709 290.804 189.637 290.563 189.532L290.551 189.527L290.539 189.522C290.2 189.395 289.843 189.259 289.523 189.087L289.523 189.087L289.514 189.082C288.831 188.735 288.166 188.264 287.579 187.697C287.007 187.141 286.535 186.471 286.175 185.744C285.826 185.012 285.599 184.228 285.517 183.432C285.438 182.619 285.482 181.805 285.639 181.058L285.639 181.058L285.641 181.049C285.71 180.687 285.823 180.322 285.936 179.974L285.94 179.963L285.943 179.952C286.012 179.701 286.119 179.456 286.224 179.213C286.242 179.171 286.26 179.129 286.278 179.087L286.284 179.074L286.289 179.06C286.322 178.967 286.37 178.87 286.425 178.769C286.439 178.743 286.456 178.713 286.474 178.681Z" fill="white" stroke="white"/>
<path d="M234.634 100.034L234.634 100.034L234.641 100.039C236.753 101.6 238.642 103.197 240.2 104.668C241.756 106.137 242.978 107.48 243.807 108.474C244.019 108.733 244.205 108.968 244.364 109.173C244.107 109.135 243.812 109.088 243.481 109.03C242.215 108.802 240.444 108.399 238.395 107.766C236.35 107.133 234.031 106.274 231.631 105.205L231.631 105.205L231.62 105.201C231.161 105.009 230.712 104.794 230.245 104.571C230.103 104.503 229.959 104.434 229.812 104.365L229.808 104.363C229.2 104.082 228.594 103.779 227.991 103.459L227.991 103.459L227.982 103.454C226.757 102.837 225.534 102.161 224.33 101.459C223.128 100.758 221.942 100.014 220.796 99.2577L220.794 99.2561C219.643 98.5057 218.538 97.7255 217.48 96.94L217.48 96.9396C215.368 95.3742 213.478 93.7806 211.921 92.3105C210.363 90.8401 209.136 89.4964 208.311 88.5104L208.311 88.5104L208.308 88.506C208.09 88.2521 207.913 88.0261 207.759 87.8245C208.012 87.8601 208.298 87.9039 208.621 87.9678L208.621 87.9678L208.63 87.9694C209.896 88.1969 211.667 88.6041 213.713 89.2373L213.714 89.2376C215.762 89.8662 218.081 90.7293 220.481 91.7981L220.483 91.7988C221.686 92.3292 222.912 92.909 224.129 93.5423L224.129 93.5424L224.133 93.5445C225.356 94.1668 226.584 94.8349 227.787 95.5363C228.991 96.239 230.181 96.9695 231.318 97.7279L231.318 97.728L231.328 97.7343C231.903 98.0984 232.463 98.48 233.013 98.8712L233.015 98.8727C233.138 98.9594 233.26 99.0447 233.381 99.1292C233.813 99.4319 234.231 99.7245 234.634 100.034Z" fill="white" stroke="white"/>
<path d="M197.962 70.7016L197.962 70.7012C196.761 70.0351 195.789 69.3458 195.126 68.8049C194.927 68.641 194.754 68.4919 194.609 68.3637C194.785 68.284 194.993 68.1929 195.232 68.0955C196.031 67.7775 197.168 67.4038 198.508 67.1202C199.852 66.8368 201.399 66.6507 203.04 66.6011L203.04 66.6011C204.671 66.5516 206.398 66.6709 208.105 66.9236C209.812 67.1889 211.494 67.5861 213.039 68.1134L213.039 68.1135C214.595 68.6429 216.018 69.2745 217.217 69.9401L217.218 69.9403C218.415 70.6029 219.393 71.2891 220.065 71.8274L220.065 71.8274L220.07 71.8311C220.271 71.9881 220.431 72.1307 220.574 72.2607C220.399 72.3432 220.206 72.4325 219.962 72.5249L219.962 72.5248L219.953 72.5281C219.155 72.846 218.022 73.2158 216.677 73.4954L216.675 73.4957C215.332 73.7792 213.785 73.9653 212.143 74.0192C210.505 74.0645 208.782 73.9531 207.077 73.7007C205.37 73.4439 203.688 73.0509 202.139 72.5276C200.584 71.998 199.157 71.3665 197.962 70.7016Z" fill="white" stroke="white"/>
<path d="M213.222 51.3136L213.214 51.3086L213.206 51.3038C213.128 51.2558 213.045 51.1913 212.959 51.1189C212.935 51.0989 212.906 51.0735 212.875 51.0467C212.844 51.0201 212.812 50.9922 212.782 50.967C212.795 50.9245 212.808 50.8788 212.82 50.8359C212.829 50.8025 212.838 50.7707 212.846 50.7434C212.879 50.6337 212.912 50.5319 212.951 50.445L212.956 50.4348L212.96 50.4243C212.978 50.3776 212.996 50.3308 213.014 50.2843C213.105 50.0507 213.193 49.8218 213.309 49.6224L213.319 49.6063L213.327 49.5896C213.477 49.2801 213.641 48.9589 213.83 48.6795L213.83 48.6796L213.835 48.6719C214.227 48.0676 214.726 47.5054 215.299 47.0339C215.86 46.5809 216.513 46.2397 217.206 46.0175C217.902 45.8042 218.627 45.7166 219.348 45.7779C220.083 45.8405 220.814 46.0288 221.474 46.3079L221.474 46.308L221.481 46.3108C221.8 46.44 222.115 46.614 222.418 46.7864L222.43 46.7931L222.442 46.7991C222.655 46.9058 222.86 47.048 223.066 47.1904C223.106 47.2181 223.146 47.2457 223.186 47.2732L223.198 47.2813L223.21 47.2887C223.291 47.3374 223.375 47.4015 223.461 47.4727C223.501 47.5054 223.538 47.5374 223.576 47.5695L223.585 47.5771C223.601 47.5911 223.618 47.6059 223.636 47.6206C223.623 47.6647 223.609 47.7122 223.597 47.757C223.587 47.7897 223.578 47.8209 223.57 47.8481C223.538 47.9585 223.504 48.0624 223.465 48.1525L223.461 48.1613L223.457 48.1703C223.434 48.23 223.411 48.2893 223.389 48.3479C223.303 48.5714 223.221 48.7857 223.11 48.9791L223.103 48.9915L223.097 49.0043L223.085 49.0288C222.93 49.3386 222.775 49.6488 222.59 49.926L222.59 49.926L222.587 49.9298C222.194 50.5322 221.694 51.0984 221.122 51.5645C220.558 52.0213 219.906 52.3579 219.215 52.5717C218.52 52.7811 217.789 52.8654 217.067 52.8041C216.327 52.7371 215.592 52.552 214.94 52.2744L214.94 52.2742L214.927 52.2692C214.628 52.1519 214.336 51.9893 214.041 51.8256C214.024 51.8161 214.007 51.8066 213.99 51.7971L213.981 51.7919L213.971 51.787C213.77 51.6866 213.581 51.5575 213.387 51.4255C213.332 51.3883 213.277 51.3508 213.222 51.3136Z" fill="white" stroke="white"/>
<path d="M56.2673 99.5386C57.652 98.537 59.0747 97.9056 60.24 97.6791C61.4503 97.4438 62.1873 97.6715 62.4846 98.0824C62.7819 98.4934 62.7674 99.2647 62.1653 100.341C61.5855 101.376 60.5406 102.53 59.156 103.532C57.7713 104.533 56.3486 105.165 55.1833 105.391C53.9731 105.627 53.2361 105.399 52.9387 104.988C52.6414 104.577 52.6559 103.806 53.258 102.73C53.8378 101.694 54.8827 100.54 56.2673 99.5386Z" fill="white" stroke="white"/>
</svg>
