<svg width="152" height="172" viewBox="0 0 152 172" fill="none" xmlns="http://www.w3.org/2000/svg">
<path d="M151.82 12.3116C151.82 10.6821 150.918 9.23368 149.476 8.50947C98.9893 -15.0274 71.4021 30.96 22.8992 13.3979V4.52632C22.8992 1.99158 20.9158 0 18.3915 0C15.8671 0 13.8838 1.99158 13.8838 4.52632V160.413H9.19573C4.14709 160.413 0 164.577 0 169.646C0 170.914 1.08185 172 2.34401 172H34.7995C36.0617 172 37.1435 170.914 37.1435 169.646C37.1435 164.577 32.9964 160.413 27.9478 160.413H23.0795V109.718C71.0415 127.099 98.4484 82.379 147.673 103.924C149.656 104.829 152 103.381 152 101.208C151.82 66.6274 151.82 47.6168 151.82 12.3116ZM83.6631 40.3747C107.284 34.4 119.184 29.3305 142.804 36.9347C142.804 42.0042 142.804 44.5389 142.804 49.7895C119.184 42.1853 107.284 47.2547 83.6631 53.2295C83.6631 47.9789 83.6631 45.4442 83.6631 40.3747ZM60.4033 30.4168C62.0261 30.0547 62.9276 29.8737 64.5504 29.3305C65.0913 27.7011 65.452 26.7958 66.1732 25.1663C66.3535 24.8042 66.7141 24.8042 66.8944 24.9853C67.4354 26.4337 67.796 26.9768 68.5172 28.4253C70.14 28.2442 71.0415 28.0632 72.6643 27.8821C72.8446 27.8821 72.8446 27.8821 73.0249 28.0632C73.0249 28.2442 73.0249 28.4253 72.8446 28.4253C71.5824 29.8737 71.0415 30.4168 69.7794 31.8653C70.14 33.3137 70.3203 34.2189 70.6809 35.6674C70.6809 35.8484 70.6809 36.0295 70.5006 36.0295C70.3203 36.2105 70.3203 36.2105 70.14 36.2105C68.6975 35.6674 67.9763 35.3053 66.7141 34.7621C65.2717 35.8484 64.5504 36.3916 63.2883 37.6589H63.108H62.9276C62.7473 37.6589 62.7473 37.4779 62.7473 37.2968C63.108 35.6674 63.2883 34.7621 63.6489 33.1326C62.3867 32.2274 61.8458 31.8653 60.5836 30.96C60.4033 30.96 60.4033 30.7789 60.4033 30.5979C60.223 30.5979 60.4033 30.4168 60.4033 30.4168ZM60.4033 47.4358C62.0261 47.0737 62.9276 46.8926 64.5504 46.3495C65.0913 44.72 65.452 43.8147 66.1732 42.1853C66.3535 41.8232 66.7141 41.8232 66.8944 42.0042C67.4354 43.4526 67.796 43.9958 68.5172 45.4442C70.14 45.2632 71.0415 45.0821 72.6643 44.9011C72.8446 44.9011 72.8446 44.9011 73.0249 45.0821C73.2052 45.2632 73.0249 45.4442 72.8446 45.4442C71.5824 46.8926 71.0415 47.4358 69.7794 48.8842C70.14 50.3326 70.3203 51.2379 70.6809 52.6863C70.6809 52.8674 70.6809 53.0484 70.5006 53.0484C70.3203 53.2295 70.3203 53.2295 70.14 53.2295C68.6975 52.6863 67.9763 52.5053 66.7141 51.7811C65.2717 52.8674 64.5504 53.4105 63.2883 54.6779H63.108H62.9276C62.7473 54.6779 62.7473 54.4968 62.7473 54.3158C63.108 52.6863 63.2883 51.7811 63.6489 50.1516C62.3867 49.2463 61.8458 48.8842 60.5836 47.9789C60.4033 47.9789 60.4033 47.7979 60.4033 47.6168C60.223 47.4358 60.4033 47.4358 60.4033 47.4358ZM42.9134 32.0463C44.5362 31.8653 45.4377 31.8653 47.0605 31.6842C47.6014 30.0547 47.962 29.3305 48.6833 27.8821C48.8636 27.7011 49.2242 27.52 49.4045 27.8821C49.9454 29.3305 50.3061 30.0547 51.0273 31.5032C52.6501 31.5032 53.5516 31.5032 55.1744 31.3221C55.3547 31.3221 55.3547 31.3221 55.535 31.5032C55.535 31.6842 55.535 31.8653 55.3547 31.8653C54.0925 33.1326 53.5516 33.6758 52.2895 34.9432C52.6501 36.5726 52.8304 37.2968 53.191 38.9263C53.191 39.1074 53.191 39.2884 53.0107 39.2884C52.8304 39.4695 52.8304 39.4695 52.6501 39.2884C51.2076 38.5642 50.4864 38.2021 49.2242 37.4779C47.7817 38.3832 47.0605 38.9263 45.7983 39.8316H45.618H45.4377C45.2574 39.8316 45.2574 39.6505 45.2574 39.4695C45.618 37.84 45.7983 37.1158 46.159 35.4863C44.8968 34.4 44.3559 33.8568 43.0937 32.7705C42.9134 32.5895 42.9134 32.5895 42.9134 32.4084C42.5528 32.0463 42.7331 32.0463 42.9134 32.0463ZM42.9134 49.0653C44.5362 48.8842 45.4377 48.8842 47.0605 48.7032C47.6014 47.0737 47.962 46.3495 48.6833 44.9011C48.8636 44.72 49.2242 44.5389 49.4045 44.9011C50.1257 46.3495 50.3061 47.0737 51.0273 48.5221C52.6501 48.5221 53.5516 48.5221 55.1744 48.3411C55.3547 48.3411 55.3547 48.3411 55.535 48.5221C55.535 48.7032 55.535 48.8842 55.3547 48.8842C54.0925 50.1516 53.5516 50.6947 52.2895 51.9621C52.6501 53.5916 52.8304 54.3158 53.191 55.9453C53.191 56.1263 53.191 56.3074 53.0107 56.3074C52.8304 56.4884 52.8304 56.4884 52.6501 56.3074C51.2076 55.5832 50.4864 55.2211 49.2242 54.4968C47.7817 55.4021 47.0605 55.9453 45.7983 56.8505H45.618H45.4377C45.2574 56.8505 45.2574 56.6695 45.2574 56.4884C45.618 54.859 45.7983 54.1347 46.159 52.5053C44.8968 51.4189 44.3559 50.8758 43.0937 49.7895C42.9134 49.6084 42.9134 49.6084 42.9134 49.4274C42.5528 49.0653 42.7331 49.0653 42.9134 49.0653ZM25.2432 29.6926C26.866 30.0547 27.7675 30.0547 29.3903 30.4168C29.9312 28.9684 30.2918 28.2442 31.0131 26.9768C31.1934 26.7958 31.554 26.7958 31.7343 27.1579C32.2752 28.7874 32.6358 29.5116 33.3571 31.1411C34.9798 31.5032 35.8814 31.6842 37.5042 31.8653C37.6845 31.8653 37.6845 32.0463 37.8648 32.0463C37.8648 32.2274 37.8648 32.4084 37.6845 32.4084C36.4223 33.3137 35.8814 33.8568 34.6192 34.7621C34.9798 36.3916 35.1601 37.2968 35.5208 38.9263C35.5208 39.1074 35.5208 39.2884 35.3405 39.2884C35.1601 39.2884 35.1601 39.2884 34.9798 39.2884C33.5374 38.2021 32.8161 37.6589 31.554 36.5726C30.1115 37.1158 29.3903 37.4779 28.1281 38.0211H27.9478C27.9478 38.0211 27.7675 38.0211 27.7675 37.84C27.2266 37.84 27.2266 37.6589 27.2266 37.4779C27.5872 36.0295 27.7675 35.1242 28.1281 33.6758C26.866 32.4084 26.325 31.6842 25.0629 30.2358C24.8826 30.0547 24.8826 29.8737 24.8826 29.8737C25.0629 29.6926 25.2432 29.6926 25.2432 29.6926ZM25.2432 46.7116C26.866 47.0737 27.7675 47.0737 29.3903 47.4358C29.9312 45.9874 30.2918 45.2632 31.0131 43.9958C31.1934 43.8147 31.554 43.8147 31.7343 44.1768C32.2752 45.8063 32.6358 46.5305 33.3571 48.16C34.9798 48.5221 35.8814 48.7032 37.5042 48.8842C37.6845 48.8842 37.6845 49.0653 37.8648 49.0653C37.8648 49.2463 37.8648 49.4274 37.6845 49.4274C36.4223 50.3326 35.8814 50.8758 34.6192 51.7811C34.9798 53.4105 35.1601 54.3158 35.5208 55.9453C35.5208 56.1263 35.5208 56.3074 35.3405 56.3074C35.1601 56.3074 35.1601 56.3074 34.9798 56.3074C33.5374 55.2211 32.8161 54.6779 31.554 53.5916C30.1115 54.1347 29.3903 54.4968 28.1281 55.04H27.9478C27.9478 55.04 27.7675 55.04 27.7675 54.8589C27.2266 54.6779 27.2266 54.6779 27.2266 54.4968C27.5872 53.0484 27.7675 52.3242 28.1281 50.6947C26.866 49.4274 26.325 48.7032 25.0629 47.2547C24.8826 47.0737 24.8826 46.8926 24.8826 46.8926C25.0629 46.7116 25.2432 46.7116 25.2432 46.7116ZM142.985 58.6611C142.985 63.7305 142.985 66.2653 142.985 71.5158C95.0225 56.1263 71.0415 94.1474 23.0795 78.7579V66.0842C70.8612 81.2926 95.0225 43.4526 142.985 58.6611ZM22.8992 100.665V87.8105C70.8612 103.2 94.8422 65.1789 142.804 80.5684C142.804 85.6379 142.804 88.1726 142.804 93.4232C95.0225 78.0337 70.8612 115.874 22.8992 100.665ZM142.985 27.8821C119.364 20.2779 107.464 25.3474 83.8434 31.3221C83.8434 26.2526 83.8434 23.7179 83.8434 18.4674C107.464 12.6737 119.184 7.60421 142.985 15.0274C142.985 20.2779 142.985 22.8126 142.985 27.8821Z" fill="white"/>
</svg>
