<svg width="172" height="172" viewBox="0 0 172 172" fill="none" xmlns="http://www.w3.org/2000/svg">
<path d="M170.486 165.495C176.916 117.269 162.611 73.3247 130.643 41.3562C97.9963 8.70906 53.2021 -5.19683 4.7816 1.74232C3.25187 1.95947 1.97119 3.17494 1.74293 4.78099C-4.89842 51.1273 7.35013 96.6369 41.3567 130.643C57.0291 146.315 75.7696 157.942 96.9399 164.833H3.58333C1.60426 164.833 0 166.438 0 168.417C0 170.395 1.60426 172 3.58333 172C7.01867 172 160.865 172 168.417 172C170.395 172 172 170.395 172 168.417C172 167.209 171.401 166.144 170.486 165.495ZM162.93 119.411C165.016 132.155 165.383 145.41 164.035 158.968L143.705 138.637L162.93 119.411ZM125.575 46.4238C143.629 64.477 155.632 86.1724 161.273 110.933L138.637 133.569L126.159 121.091L134.152 113.098C135.551 111.698 135.551 109.429 134.152 108.03C132.753 106.631 130.484 106.631 129.085 108.03L121.091 116.023L108.613 103.546L116.607 95.5518C118.006 94.1525 118.006 91.8835 116.607 90.4839C115.208 89.085 112.939 89.085 111.539 90.4839L103.545 98.4776L91.0675 85.9997L99.0613 78.006C100.46 76.6067 100.46 74.3377 99.0613 72.938C97.662 71.5387 95.393 71.5387 93.9933 72.938L86 80.9321L73.5221 68.4542L81.5158 60.4605C82.9151 59.0612 82.9151 56.7922 81.5158 55.3925C80.1165 53.9932 77.8476 53.9932 76.4479 55.3925L68.4542 63.3863L55.9763 50.9083L63.97 42.9146C65.3693 41.5153 65.3693 39.2463 63.97 37.8467C62.5707 36.4474 60.3018 36.4474 58.9021 37.8467L50.9084 45.8404L38.4305 33.3621L61.0661 10.7265C85.8276 16.3674 107.523 28.3705 125.575 46.4238ZM7.96468 13.0316L28.2954 33.3625L9.06942 52.5886C6.9832 39.8437 6.61698 26.5889 7.96468 13.0316ZM52.5876 9.07026L33.363 28.2949L13.0311 7.96301C26.0232 6.67372 39.2303 6.88729 52.5876 9.07026ZM46.4242 125.575C28.371 107.522 16.3679 85.827 10.7274 61.0661L33.363 38.43L45.8409 50.9083L37.8472 58.9021C36.4479 60.3014 36.4479 62.5703 37.8472 63.97C39.2461 65.3689 41.5154 65.3693 42.9151 63.97L50.9088 55.9763L63.3867 68.4542L55.393 76.4479C53.9937 77.8472 53.9937 80.1162 55.393 81.5158C56.7919 82.9148 59.0612 82.9151 60.4609 81.5158L68.4546 73.5221L80.9324 86L72.9387 93.9938C71.5395 95.3931 71.5395 97.662 72.9387 99.0617C74.3384 100.461 76.607 100.461 78.0067 99.0617L86 91.0676L98.4779 103.546L90.4842 111.539C89.0849 112.939 89.0849 115.208 90.4842 116.607C91.8835 118.007 94.1521 118.006 95.5521 116.607L103.546 108.613L116.024 121.091L108.03 129.085C106.631 130.484 106.631 132.753 108.03 134.153C109.429 135.552 111.698 135.552 113.098 134.153L121.092 126.159L133.569 138.637L110.934 161.273C86.1724 155.632 64.4778 143.629 46.4242 125.575ZM119.412 162.929L138.637 143.705L158.968 164.037C145.484 165.374 132.324 165.039 119.412 162.929Z" fill="white"/>
</svg>
