<svg width="154" height="154" viewBox="0 0 154 154" fill="none" xmlns="http://www.w3.org/2000/svg">
<path d="M37.3853 10.9993L36.8708 11.5129L37.7283 10.9993H37.8998L38.0713 10.8281L37.3853 10.9993ZM35.3274 12.5401L34.9844 12.8825L35.6704 12.7113L36.3563 12.5401H36.8708L38.0713 11.8553L38.2428 11.5129L37.5568 11.8553H37.0423L38.4143 10.9993L38.9287 10.6569L37.8998 10.9993C36.8708 11.6841 35.6704 12.3689 34.6414 13.0537L34.8129 12.8825L35.3274 12.5401ZM93.2918 152.41H93.1203H92.9488C91.7483 152.581 90.7194 152.924 89.5189 153.095C90.8909 152.924 92.0913 152.752 93.2918 152.41ZM116.615 10.8281C116.786 10.9993 116.958 10.9993 117.301 11.1705C116.958 11.1705 116.786 10.9993 116.615 10.8281ZM65.51 20.4153L66.196 20.2441L66.882 20.0729L65.853 20.2441L65.51 20.4153ZM110.441 7.57534L109.755 7.23294C109.926 7.40414 110.269 7.40414 110.441 7.57534ZM118.844 12.1977C118.844 12.1977 119.016 12.3689 119.187 12.3689C119.016 12.3689 119.016 12.1977 118.844 12.1977ZM34.4699 13.0537C33.441 13.5673 32.5835 14.2521 32.069 14.7657C32.9265 14.0809 33.784 13.5673 34.4699 13.0537ZM119.187 12.3689L119.53 12.7113C119.53 12.5401 119.359 12.5401 119.187 12.3689ZM115.757 10.4857C115.929 10.6569 116.272 10.8281 116.443 10.9993C116.272 10.6569 116.1 10.4857 115.757 10.4857ZM128.276 19.3881C127.933 19.0457 127.59 18.8745 127.419 18.5321C127.762 18.7033 127.933 19.0457 128.276 19.3881ZM41.8441 24.1817L40.9866 24.5241H41.6726L41.8441 24.1817ZM154 81.8759C154 82.0471 154 82.2183 153.828 82.3895V82.5607L153.657 82.3895L153.486 81.7047L153.314 81.3623L153.143 80.8487L152.628 80.6775V79.1367L152.285 78.6231L152.114 78.2807H151.942L151.771 78.1095V77.4247H151.599L151.428 77.0823L151.256 76.7399V76.5687L151.085 76.3975C150.913 76.2263 150.913 75.7127 150.913 75.3703V74.6855L150.57 74.0007L150.399 73.6583L150.57 73.1447V71.2615L150.399 70.7479V70.2343L150.227 69.0359C150.056 68.3511 149.884 67.8375 149.713 67.3239L149.541 66.6391L149.37 66.1255L149.027 65.7831C148.855 65.4407 148.855 65.0983 148.684 64.7559V63.5575L148.512 63.2151L148.341 62.3591V61.1608L148.169 60.476L147.998 59.62L147.826 58.764V58.0792L147.483 56.7096V56.0248L147.655 55.5112L147.483 54.3128V52.2584L146.797 50.8888C146.626 50.204 146.283 49.6904 146.111 49.1768L145.768 48.1496C145.768 47.4648 145.597 47.1224 145.425 46.4376C145.082 45.7528 144.739 45.068 144.568 44.212V43.8696L144.053 44.0408L143.71 43.8696L143.196 43.356L143.024 43.5272L143.196 44.0408H143.024V44.3832L142.51 43.5272L141.996 42.8424L141.653 42.5L141.996 41.8152L141.824 41.3016C141.653 40.9592 141.31 40.6168 141.138 40.2744L140.795 39.7608L140.624 39.5896C140.281 39.2472 140.109 38.9048 139.938 38.5624L139.595 38.22L139.252 37.0216L139.595 36.6792L139.766 36.1656L139.938 35.9944V34.9672L139.423 34.2824L137.88 32.2281L137.194 31.5433L136.679 31.3721L136.336 31.5433L135.65 30.8585L135.479 30.5161L135.822 30.1737L134.964 29.3177H135.307L134.621 27.7769L133.935 27.0921V27.2633L134.107 27.9481H133.935L134.278 28.6329L134.107 28.8041L134.45 29.4889H134.278L133.592 28.1193L133.421 27.6057L133.249 27.9481L132.735 27.6057L132.563 26.9209L132.049 27.2633L131.363 26.5785L131.535 26.0649L131.192 25.7225L130.506 25.3801V25.7225L130.163 25.5513L129.648 25.0377L129.305 24.8665L129.82 25.5513L128.962 24.8665L128.448 24.5241L127.59 23.6681L126.733 22.4697V21.9561L127.59 23.1545L127.419 22.6409V22.2985L128.105 22.9833L128.791 23.8393L128.962 23.4969L130.163 24.1817L130.334 24.0105C130.849 24.3529 131.192 24.6953 131.706 24.8665L131.878 24.5241L132.563 25.2089L132.906 25.7225L133.249 25.8937L133.078 25.7225L131.535 24.0105L131.02 23.3257L130.849 22.9833L130.677 22.8121L130.506 22.4697L129.991 21.9561C129.648 21.7849 129.305 21.4425 129.305 21.2713L128.791 20.9289C128.276 20.4153 127.762 20.2441 127.247 19.7305L127.076 19.3881C126.733 19.0457 126.561 18.8745 126.39 18.7033L126.904 19.0457L127.247 19.3881L127.59 19.5593L128.105 19.9017L128.791 20.5865L129.305 20.9289L129.648 21.2713V21.1001L129.991 21.4425L129.648 20.9289L129.305 20.5865H129.477L128.276 19.5593V19.3881L127.419 18.5321L127.247 18.3609L126.733 18.0185C126.561 18.0185 126.561 17.8473 126.39 17.8473L125.875 17.3337C125.532 16.9913 125.018 16.6489 124.675 16.3065C125.018 16.6489 125.532 16.9913 125.875 17.3337C126.047 17.3337 126.218 17.6761 126.39 17.8473C126.561 17.8473 126.561 17.8473 126.733 18.0185C126.904 18.0185 127.076 18.1897 127.247 18.3609H127.419C125.018 16.1353 122.445 14.4233 119.702 12.5401C120.388 13.0537 120.731 13.2249 121.416 13.7385H121.073L120.902 13.5673L121.073 13.7385C119.702 12.8825 117.987 11.8553 116.615 10.8281C116.443 10.6569 116.1 10.4857 115.929 10.3145L115.757 10.4857C116.272 10.8281 116.958 11.1705 117.644 11.6841C119.016 12.5401 120.216 13.5673 121.588 14.4233L122.102 14.7657L122.445 14.9369L123.646 15.7929L124.16 16.3065C125.018 16.9913 125.875 17.6761 126.733 18.3609L126.904 18.7033L127.247 19.0457C126.561 18.5321 125.875 18.1897 125.189 17.8473L124.675 17.6761L126.047 19.0457L126.561 19.7305H126.218C125.189 19.0457 123.989 18.3609 122.96 17.5049L122.274 16.8201L121.245 15.4505L119.873 14.4233C117.472 12.5401 114.557 10.8281 111.813 9.11614L111.47 8.60254L110.269 7.91774L109.755 7.74654L109.069 7.23294L108.726 6.89054L109.412 7.23294H109.755C109.241 7.06174 108.555 6.71934 107.869 6.37694L109.755 7.23294L109.069 6.89054C108.555 6.71934 108.383 6.37695 107.869 6.20575C104.439 4.66495 101.009 3.46656 97.4076 2.43936C95.1782 1.75456 92.9488 1.41216 90.5479 0.898564C81.1158 -0.471031 71.1693 -0.299831 61.7372 1.58336C60.0223 1.92576 58.4788 2.26816 56.7639 2.78176H57.1069L56.0779 3.12416C55.735 3.12416 55.392 3.29536 55.049 3.29536V3.80895L52.1336 4.83615C51.7906 5.00735 51.2762 5.17855 50.9332 5.34975L49.3898 6.03455L48.5323 6.89054L47.8463 7.23294L47.1604 7.57534L46.4744 7.91774L45.7884 8.26014V8.43134L45.4454 8.77374L44.931 9.28733V9.80093L43.7305 10.4857L44.0735 10.6569L44.7595 10.1433L45.2739 9.97213L44.7595 10.3145V10.8281L44.0735 11.6841L43.559 12.1977C42.873 12.8825 42.5301 13.5673 41.8441 14.4233L41.1581 14.7657L40.9866 15.1081L41.6726 14.5945L41.8441 15.2793L41.1581 16.3065H40.4722L39.9577 15.9641L38.9287 16.6489H38.5857V16.3065L38.9287 15.7929L39.1002 15.2793L39.6147 14.9369L39.7862 14.5945L39.6147 14.4233L40.1292 13.9097L40.6437 13.7385L40.1292 13.5673L39.6147 14.0809L39.1002 14.2521C39.1002 14.2521 39.1002 14.2521 38.9287 14.2521H38.4143L38.5857 13.9097L37.8998 14.5945L37.2138 15.4505H37.0423L36.5278 15.7929L36.1849 15.9641L36.5278 15.2793L35.8419 14.9369V14.7657H34.8129L34.2984 14.9369L35.1559 14.2521L34.6414 13.9097L35.1559 13.5673H34.8129L35.3274 13.0537L34.6414 13.3961L33.9555 13.7385L33.441 14.0809L32.9265 14.5945L31.7261 15.4505L31.8975 15.1081L31.2116 15.4505L30.6971 15.9641V15.7929L29.8396 16.4777L30.1826 16.1353C29.8396 16.3065 29.4967 16.6489 29.4967 16.8201C16.4633 26.9209 7.03118 40.9592 2.74388 56.5384C-1.37194 71.6039 -0.857461 87.8679 4.2873 102.591C13.8909 129.641 38.7572 149.671 67.2249 153.437C74.0846 154.293 81.2873 154.122 88.147 153.266C89.8619 152.924 91.4053 152.581 92.9488 152.41C120.559 146.589 143.539 125.189 151.256 98.1398C152.8 93.175 153.657 88.0391 154 82.7319V81.8759ZM123.303 15.2793C123.303 15.2793 123.474 15.4505 123.646 15.4505L123.303 15.2793ZM129.991 26.0649L130.677 26.2361L132.049 27.6057L132.735 28.6329V29.6601L132.392 30.0025L131.706 28.8041L130.849 28.1193C130.506 27.4345 130.163 26.9209 129.991 26.4073V26.0649ZM116.272 20.9289L117.301 21.1001L117.129 20.4153H117.815L117.301 19.7305L117.644 19.3881L118.33 19.9017L119.187 20.2441L119.873 21.1001L120.045 22.2985V22.6409C119.53 22.8121 119.187 22.9833 118.673 23.3257L118.33 22.4697L117.301 22.6409L117.644 22.1273L117.301 21.9561L116.615 22.2985L116.1 21.6137L116.272 20.9289ZM113.871 44.5544L114.385 44.212L114.728 44.8968L115.414 45.5816L115.586 46.6088L115.243 46.78L114.557 46.6088L114.214 45.7528L113.871 45.5816L113.356 46.78H112.842L113.185 46.0952L112.327 45.924L111.641 46.2664L110.098 46.6088L109.755 46.2664L110.098 45.7528L109.584 45.4104L110.098 44.7256L110.269 42.6712L110.441 41.9864L110.955 41.4728H111.298V41.8152C111.298 42.5 111.127 43.0136 111.127 43.6984L111.47 43.1848L112.156 43.356L111.984 43.8696L112.67 44.0408L112.842 43.6984L113.699 43.8696L113.871 44.5544ZM97.7506 2.78176C97.5791 2.78176 97.4076 2.78176 97.2361 2.61056C97.4076 2.61056 97.5791 2.78176 97.7506 2.78176ZM95.6926 2.26816C95.1782 2.26816 94.8352 2.09696 94.3207 1.92576C94.8352 2.09696 95.1782 2.09696 95.6926 2.26816ZM91.0624 13.9097L91.7483 13.5673L92.6058 13.3961L93.2918 13.5673L93.6347 12.8825L94.4922 13.0537H95.6926L94.6637 12.8825L94.1492 12.3689L94.4922 11.6841L95.1782 11.3417L95.0067 10.9993L95.6926 10.6569C96.2071 10.4857 96.5501 10.1433 97.0646 9.97213C97.5791 9.97213 98.265 9.80093 98.7795 9.80093L98.951 10.3145C98.4365 10.6569 98.265 10.9993 97.7506 11.3417H98.0935L98.608 10.8281L99.294 10.6569L99.1225 10.3145H99.8085L100.323 10.8281V9.62973L100.837 9.28733L101.523 9.45853L102.038 10.3145L102.209 10.4857L102.038 10.9993L102.381 10.6569C102.895 10.9993 103.238 11.3417 103.753 11.6841L104.953 12.3689L105.811 12.5401L105.639 12.8825L105.811 13.3961H106.668L107.526 13.9097V14.0809L108.726 14.4233L108.383 14.9369H109.069L109.412 15.2793L109.241 15.6217L108.898 15.9641L109.755 16.3065L110.269 16.6489H109.412L109.755 16.9913H110.441L111.298 17.1625L112.156 17.6761L111.984 18.1897C111.47 18.0185 111.127 17.8473 110.612 17.8473L111.298 18.3609L111.641 19.0457C111.984 18.8745 112.327 18.5321 112.67 18.3609L113.013 19.3881V20.4153L112.327 21.1001L111.984 21.2713V21.7849L112.499 22.8121L112.327 23.6681L111.984 24.0105L111.641 24.5241L110.955 25.2089L111.127 25.8937L111.813 26.5785L112.156 27.2633L111.984 28.2905L112.67 28.9753C113.013 29.6601 113.356 30.1737 113.528 30.8585H113.013L111.641 30.1737L110.612 30.5161L109.755 30.1737L108.726 29.4889L106.84 28.6329L106.154 27.9481L105.468 27.2633L104.096 26.5785L103.581 25.7225L102.895 25.5513L102.552 24.3529L103.067 23.8393L102.895 23.3257L102.381 22.6409V23.3257L102.209 23.4969L101.866 23.6681L101.18 23.3257L100.666 22.6409V22.2985L101.18 22.1273H102.209C101.523 21.9561 101.009 21.7849 100.323 21.4425L99.9799 21.6137L99.4655 21.4425L99.294 20.5865L98.7795 20.2441C98.0935 19.7305 97.4076 19.3881 96.7216 19.0457L96.0356 18.8745L95.6926 18.7033L94.1492 18.3609L93.2918 18.5321C92.6058 18.7033 91.9198 18.8745 91.0624 18.8745L90.3764 18.7033L89.3474 18.1897L90.2049 17.8473L90.8909 17.6761H89.1759L88.147 17.3337L87.9755 17.1625C88.6615 16.8201 89.6904 16.4777 90.3764 16.1353V15.7929L89.1759 15.6217L89.5189 15.2793L90.2049 14.5945L90.7194 14.4233L90.3764 14.2521L91.0624 13.9097ZM96.7216 28.8041L97.7506 29.1465L98.0935 29.3177L98.951 30.1737L99.1225 30.8585H98.0935L96.0356 30.1737C96.7216 30.6873 97.5791 31.0297 98.265 31.3721L98.608 31.7145L96.5501 31.5433L94.8352 31.0297L93.9777 30.8585L94.1492 30.5161C93.4632 30.1737 92.6058 29.8313 91.9198 29.8313L92.0913 30.1737L90.0334 30.5161L89.3474 30.1737L89.6904 29.4889L90.8909 29.1465L92.2628 28.9753L91.9198 28.6329V28.1193L92.4343 27.0921L92.0913 26.5785L91.5768 26.0649L90.5479 25.7225L89.1759 25.5513L89.5189 25.2089L88.833 24.5241H88.147L87.461 24.1817L87.118 24.5241L86.0891 24.6953L83.8597 24.5241C83.1737 24.3529 82.3163 24.1817 81.6303 24.0105L81.1158 23.6681L81.8018 23.1545H80.9443L80.6013 22.4697L81.1158 21.7849L81.8018 21.4425L83.1737 21.2713L82.8307 21.9561L83.3452 22.6409L83.8597 21.9561L85.2316 21.6137L86.2606 22.4697V23.1545L87.2895 22.8121L87.804 22.4697L89.1759 22.9833L90.0334 23.3257L90.2049 23.8393L91.0624 23.4969L91.7483 24.0105L93.2918 24.1817L93.9777 24.5241L94.8352 25.2089L94.1492 25.8937L95.8641 26.4073L96.8931 26.5785L98.0935 27.2633L98.951 27.0921L99.1225 27.7769L98.608 28.8041L97.7506 28.4617L96.5501 27.4345L95.8641 27.6057V28.2905L96.7216 28.8041ZM88.3185 30.8585L87.6325 31.2009L86.4321 30.8585L85.9176 30.3449L85.2316 31.0297L84.2027 31.5433L84.0312 30.8585L83.0022 31.0297L83.6882 30.5161V29.8313L83.8597 28.9753L84.3742 29.1465L84.5457 29.6601L84.8886 29.4889L85.4031 29.8313C86.0891 30.0025 86.4321 30.3449 87.118 30.5161L87.2895 31.0297L87.804 30.8585H88.3185ZM78.2004 15.4505L78.5434 15.2793H79.0579L78.7149 14.9369H79.5724L80.0869 15.4505C80.6013 15.6217 80.9443 15.7929 81.4588 15.7929L81.8018 16.3065H81.9733L81.8018 15.9641H82.8307L83.1737 16.1353L83.8597 15.7929H81.6303L80.9443 15.4505L80.6013 15.1081L80.0869 14.7657L79.9154 14.4233L80.6013 14.5945H81.1158L81.8018 14.4233L82.3163 14.0809H82.8307L83.3452 14.2521L83.5167 13.9097L84.0312 13.7385L84.7171 13.5673L85.5746 13.3961H86.6036C87.461 13.3961 88.6615 13.2249 89.5189 13.2249L90.2049 13.3961L90.3764 13.5673L89.8619 14.0809L89.1759 14.4233L89.0045 14.5945H89.5189L89.0045 15.2793L88.6615 15.4505L88.3185 16.1353L87.461 16.3065L87.2895 16.4777L86.0891 16.6489H86.775L86.6036 16.8201L87.118 17.1625L86.775 17.5049L86.0891 17.8473L85.9176 18.1897L85.2316 18.5321L85.4031 18.7033H86.0891V18.8745L85.0601 19.5593H85.2316L85.9176 19.9017L86.0891 20.2441L85.7461 20.4153L85.0601 20.5865L84.3742 20.4153L82.6592 20.5865H81.6303L80.7728 20.4153L79.5724 20.2441L79.4009 19.7305V19.2169L78.7149 18.8745H77.686L77.1715 18.5321L77.5145 18.1897L78.3719 18.3609L78.8864 18.7033H79.7439L80.2583 19.0457V19.3881L80.9443 19.5593L81.2873 19.7305C81.8018 19.7305 82.1448 19.9017 82.8307 19.9017L83.5167 19.7305L84.5457 19.5593H85.0601L83.6882 19.3881L82.3163 19.5593L81.6303 19.3881H80.7728V18.8745L81.6303 18.7033L81.2873 18.0185H81.6303L82.8307 18.3609L82.1448 17.8473L81.4588 17.6761L81.8018 17.3337L82.4877 17.1625L82.6592 16.8201L82.4877 16.6489L81.8018 16.9913L81.1158 17.6761H80.4298L79.5724 17.5049L78.8864 16.9913V16.6489L79.2294 16.4777H78.5434L78.0289 16.1353L77.8575 15.7929L78.2004 15.4505ZM80.4298 21.1001L79.5724 21.7849L78.8864 21.9561L78.2004 22.6409H77.5145L77.1715 21.9561V21.4425L77.5145 21.1001L78.2004 20.9289L79.2294 21.1001H80.4298ZM76.8285 16.8201H77.8575L78.3719 17.1625L78.2004 17.5049L77.5145 17.6761L77.1715 17.5049L76.8285 17.1625V16.8201ZM76.8285 19.0457V19.5593L76.4855 20.2441H75.6281L75.1136 20.0729L75.2851 19.5593H74.5991L74.7706 18.8745H75.2851L75.971 18.7033L76.4855 18.5321L76.8285 19.0457ZM74.0846 15.9641L74.7706 16.1353L75.7996 16.6489L76.1425 17.1625L76.314 17.5049L75.6281 17.3337L74.9421 16.9913L74.0846 16.8201L74.5991 16.6489L73.9131 16.3065L74.0846 15.9641ZM73.2272 21.6137H73.5702L74.5991 21.7849L74.0846 21.1001L74.7706 20.7577L75.4566 21.1001H76.314L76.4855 21.4425L75.7996 21.7849L76.4855 22.2985L76.314 22.9833L75.2851 23.3257L74.7706 23.1545L74.4276 22.8121L73.2272 22.1273V21.6137ZM68.0824 17.8473L68.7684 17.6761L69.7973 18.1897L70.4833 18.8745L71.1693 19.0457L70.8263 18.1897L71.5122 18.0185L72.0267 18.1897V19.0457H72.5412L73.0557 19.2169V19.7305L72.5412 20.0729L70.8263 19.9017L69.4543 20.0729L68.5969 19.3881L68.7684 19.0457L69.9688 18.8745C69.2828 18.8745 68.4254 18.7033 67.7394 18.5321L67.0534 18.3609L68.0824 17.8473ZM61.5657 20.0729L62.4232 19.3881L63.1091 18.8745V18.1897L64.6526 18.5321L65.167 18.8745L66.196 19.2169L66.539 19.5593L66.882 20.0729L67.5679 19.9017L68.0824 20.2441L67.5679 20.5865H68.5969L69.1114 21.2713L69.7973 20.9289L70.1403 21.2713L70.3118 22.1273L70.8263 21.7849V20.9289H71.3408L71.8552 21.1001L72.3697 21.6137V23.1545C72.7127 23.6681 73.2272 24.0105 73.9131 24.1817L73.5702 24.6953H72.5412L72.8842 25.2089L72.5412 25.5513L71.5122 25.2089L70.6548 24.6953H69.9688L68.5969 24.8665C67.7394 24.8665 66.7105 24.6953 66.0245 24.6953L65.853 24.1817L65.167 23.8393H64.4811L64.1381 23.1545H65.51L66.196 23.3257H66.882L66.196 22.8121L65.167 22.4697L64.4811 22.2985V21.9561L65.853 21.7849L65.167 21.6137L64.4811 21.1001L65.167 20.5865L65.51 20.4153L64.824 20.5865L63.7951 21.1001C63.6236 21.2713 63.6236 21.4425 63.4521 21.4425L61.9087 21.6137V21.1001L61.2227 20.4153L61.5657 20.0729ZM59.5078 2.09696C59.3363 2.26816 59.1648 2.26816 58.8218 2.26816C58.9933 2.26816 59.3363 2.09696 59.5078 2.09696ZM139.766 107.727L138.909 109.781L138.223 110.637L136.679 112.692L135.993 114.061L135.136 115.26L134.964 115.431L134.45 116.287L133.764 118.341C133.249 119.026 133.078 119.882 132.563 120.567L132.049 121.081L131.363 122.45L129.991 123.991L129.648 125.018L128.962 125.703L128.448 126.388C128.105 126.559 127.762 126.559 127.762 126.73L126.39 127.415L125.704 128.1L124.675 128.785L123.303 129.812L121.759 130.839L121.245 131.524V131.866L120.559 132.722L120.045 133.236L119.187 133.92L117.301 135.632C116.615 136.146 116.1 136.488 115.243 136.831L114.385 137.516L113.013 138.885L111.813 139.57H111.298L110.784 139.741L110.098 139.57L109.412 139.741L109.069 139.399L108.726 139.912L109.412 140.426L108.898 140.94L109.241 141.111L108.898 141.453L107.526 142.48L106.325 142.823L104.439 143.336L103.581 143.508L103.238 143.85V144.192L102.552 144.535L101.695 144.706L101.18 144.364L100.494 144.706L100.151 145.391L100.666 145.562L101.352 145.22V145.562L100.494 145.904L99.637 146.418L98.951 147.103L98.4365 147.445L97.4076 147.274L96.5501 147.616L95.8641 148.13L96.3786 148.472H97.0646L96.3786 148.986L95.1782 149.328L94.1492 150.013L93.2918 150.356L92.6058 150.184L92.4343 150.527L92.7773 150.698C92.6058 150.698 92.6058 150.698 92.4343 150.698V150.869L93.1203 151.04H93.8062L93.4632 151.212L92.7773 151.383H92.6058L92.0913 151.554L91.4053 151.725H89.8619C89.3474 151.725 89.1759 151.554 88.6615 151.554L87.9755 151.04L87.804 150.869V150.698L88.3185 150.356L88.147 150.013L88.6615 149.328L89.3474 148.815L90.3764 148.301H89.1759L90.2049 147.788L90.8909 146.932L91.7483 147.103L92.7773 146.076H92.6058L91.9198 146.76H91.4053C92.0913 146.076 92.4343 145.562 92.9488 144.877L93.6347 144.364V143.679L93.9777 142.994H94.4922C95.1782 142.309 96.0356 141.453 96.7216 140.768L97.5791 139.741L97.7506 138.714L98.4365 138.029L98.608 137.173L99.4655 136.146C100.151 134.263 101.18 132.38 101.866 130.839L102.209 129.298L102.381 128.1L101.352 127.586V127.073L99.1225 126.388L97.0646 125.532L96.2071 124.847L95.6926 124.162L96.0356 123.82L95.1782 122.621C94.4922 121.252 93.8062 120.053 93.1203 118.684L92.6058 118.17L92.2628 117.485L91.4053 116.801L90.5479 116.287L91.0624 115.773L90.3764 114.746L90.8909 114.061L91.9198 113.377L92.6058 112.521V111.151L91.9198 111.836L91.2338 111.322L91.5768 110.98L91.4053 109.953L91.9198 109.781L92.2628 109.097L92.9488 108.412V107.898L93.6347 107.556L94.4922 107.042L94.1492 106.357L94.6637 106.186V105.501L95.0067 104.988L95.6926 104.817C96.0356 104.303 96.3786 103.789 96.7216 103.276L96.3786 103.105L96.7216 102.42L96.3786 101.221L96.7216 100.879L96.5501 99.8518L96.0356 99.3382L95.5212 98.9958L95.1782 98.311L95.5212 97.9686H95.1782L95.0067 97.6262L94.3207 97.2838L93.6347 97.1126L93.4632 97.6262L92.7773 97.9686H92.4343L92.2628 98.311L92.9488 98.9958H92.6058L92.4343 99.167L91.9198 99.3382L91.7483 98.6534L91.5768 98.8246H91.0624L90.7194 98.311H90.0334L89.6904 98.1398H89.0045V98.4822L88.833 98.311L88.147 97.9686L87.804 97.6262L87.9755 97.455V97.1126L87.6325 96.7702L87.118 96.4278L86.6036 96.2566L86.4321 95.9142L86.0891 95.4006V95.743L85.7461 96.0854L85.4031 95.9142L85.2316 95.5718V95.0582L85.4031 94.5446L85.0601 94.3734L85.4031 94.031C85.0601 93.6886 84.7171 93.3462 84.3742 93.175L84.0312 92.8326L83.3452 92.319L82.6592 91.6342L82.8307 91.463L83.0022 91.6342L83.1737 91.463L83.0022 90.9494L82.4877 90.7782L82.3163 91.1206H81.6303L81.1158 90.9494L80.6013 90.7782L79.9154 90.607L79.5724 90.9494L78.7149 90.7782H77.8575L77.1715 90.4358L76.4855 89.7511L74.9421 88.3815L74.4276 87.6967L73.3987 87.3543H72.7127L71.6837 87.8679L70.9978 88.0391L70.1403 87.5255L69.2828 87.1831L68.0824 86.4983L66.882 86.3271L65.167 85.6423L64.1381 84.9575L63.7951 84.6151L63.1091 84.4439L61.7372 83.9303L61.2227 83.2455L60.0223 82.3895L59.3363 81.5335L58.9933 80.8487H59.5078V80.5063L59.8508 80.1639V79.6503L59.5078 78.9655V78.4519L59.1648 77.7671L58.3073 76.3975L57.2784 75.0279L56.5924 74.1719L55.735 73.4871L55.5635 73.1447L55.9065 72.4599L55.2205 71.9463L54.5345 71.2615V70.2343H54.02L53.3341 69.5495L52.8196 68.8647V68.3511L52.3051 67.3239V66.4679L52.4766 65.9543L51.7906 65.2695H51.4477L50.7617 64.7559L50.4187 65.2695V66.8103L50.7617 67.4951L51.4477 68.5223L51.6191 68.8647L51.7906 69.0359V69.5495H51.9621V70.2343L52.3051 70.5767L52.4766 71.0903L53.1626 71.7751L53.3341 72.9735C53.5056 73.4871 53.6771 73.6583 53.8486 74.1719V74.8567L54.5345 75.0279C54.8775 75.5415 55.049 75.8839 55.2205 76.2263V76.3975L54.5345 76.9111H54.363L54.1915 76.2263L53.5056 75.3703L52.8196 74.6855L52.1336 74.1719L52.3051 73.3159V72.6311C51.7906 72.1175 51.6191 71.9463 51.1047 71.4327V71.7751L50.9332 71.4327L50.2472 70.9191L49.7327 69.7207L49.9042 69.5495L50.4187 69.7207L50.9332 69.2071L51.1047 68.5223L50.2472 67.8375L49.5612 67.3239C49.2183 66.4679 49.0468 65.4407 48.8753 64.5847L48.5323 63.3863V62.7015L48.0178 62.0167L47.5033 61.6743V61.3319L46.8174 61.1608L46.4744 60.6472L45.6169 60.3048L45.4454 59.9624V59.2776L44.7595 57.908L44.588 56.3672L44.7595 56.0248V55.34L44.4165 54.1416L44.588 53.1144L44.245 52.4296L44.931 51.5736L45.2739 50.7176V49.8616L45.9599 49.0056L46.9889 46.9512L47.5033 45.4104L47.6748 44.3832V43.6984L47.8463 43.5272L48.8753 44.212V45.4104L49.3898 45.068L49.7327 44.212L49.9042 43.356H49.7327L48.7038 41.8152L48.3608 41.1304L47.3318 40.4456L47.5033 39.4184L48.0178 38.7336L47.3318 38.0488L47.6748 37.1928L47.3318 36.1656L47.6748 35.652L47.5033 35.1384L47.1604 34.6248L47.6748 33.7688L47.3318 32.7417L47.6748 31.7145L46.8174 30.8585L45.9599 30.5161L45.4454 30.0025L45.1024 28.6329C44.7595 28.2905 44.4165 27.9481 44.245 27.6057L43.559 27.2633L42.873 26.2361L42.7016 25.5513L42.0156 25.3801L41.3296 26.0649H41.1581L40.4722 25.8937H39.7862L39.4432 25.7225L39.9577 25.2089L40.8151 24.5241L40.6437 24.6953L39.7862 25.2089L38.5857 25.5513L38.4143 26.2361L37.5568 26.4073H36.0134L35.4989 26.7497H34.4699L33.9555 27.0921H33.2695L33.098 26.7497H31.2116L30.5256 26.4073L30.6971 26.2361H32.069L32.755 26.0649L33.2695 26.4073L33.784 26.2361L34.8129 26.0649L35.1559 25.8937L35.8419 25.7225L36.5278 25.0377L37.2138 24.6953H36.5278V24.5241L35.8419 24.6953L36.1849 24.0105L35.6704 24.1817L36.0134 23.6681H35.3274L35.1559 23.4969L35.8419 22.9833L36.3563 22.6409L36.5278 22.1273L36.0134 22.2985L36.5278 21.2713L37.2138 20.7577L37.5568 20.2441L38.2428 19.9017L38.9287 19.7305L39.6147 19.3881L39.9577 19.5593V19.9017L40.6437 19.7305L40.4722 19.9017H40.9866L41.5011 19.5593V19.2169L42.1871 19.0457L42.0156 18.8745L41.5011 18.7033L41.1581 18.8745L40.6437 18.5321V18.0185L40.9866 17.6761L41.5011 16.9913H42.1871L43.0445 17.1625L43.216 17.3337L42.5301 17.6761L43.0445 18.1897L43.559 17.5049L43.7305 16.9913L44.245 16.4777L44.588 15.9641L44.7595 15.4505L45.4454 15.2793L45.7884 15.6217H46.4744L47.1604 15.2793L47.8463 15.1081L48.1893 15.2793L49.0468 15.4505L49.2183 15.6217H49.7327L49.9042 16.1353L49.5612 16.6489H49.9042L50.4187 16.9913H50.0757L50.4187 17.5049L50.9332 17.6761L51.2762 18.3609L51.9621 18.8745L52.1336 19.2169L52.8196 19.3881L53.1626 19.9017C53.5056 20.2441 53.8486 20.4153 53.8486 20.5865L54.1915 21.2713L54.5345 21.6137L55.2205 21.4425H55.9065L56.5924 21.7849L57.6214 21.6137H58.3073V22.1273L58.8218 21.9561L59.3363 21.6137L59.6793 21.7849L59.8508 22.6409L60.8797 22.1273L60.3653 22.8121H61.0512L61.3942 22.6409L62.0802 22.8121L62.7661 23.4969L63.7951 24.1817L64.4811 24.5241H65.167L65.853 25.2089L64.824 25.5513L65.6815 26.0649L67.3964 26.2361L68.0824 26.0649L68.5969 26.7497L69.4543 26.4073L68.9399 25.8937L69.4543 25.5513H70.3118L70.8263 25.8937L71.3408 26.5785H72.0267L73.0557 27.2633H74.0846L74.9421 27.4345V26.7497L75.6281 26.5785L76.4855 27.0921L76.314 27.9481L76.8285 27.2633H77.343L77.8575 26.4073L77.1715 25.7225L76.4855 25.2089L76.657 24.1817L77.343 23.4969L78.0289 23.6681L78.7149 24.1817L79.4009 25.2089L78.7149 25.7225L79.9154 26.0649V26.9209L80.7728 26.2361L81.4588 26.9209L81.2873 27.6057L81.9733 28.2905L82.6592 27.6057L83.1737 26.9209V25.8937C83.8597 25.8937 84.3742 26.0649 85.0601 26.0649L85.9176 26.5785L86.0891 27.0921L85.5746 27.6057L85.9176 27.9481L85.7461 28.2905L84.8886 28.4617L84.0312 28.1193L83.8597 28.6329L83.1737 29.3177L83.0022 29.8313L82.3163 30.5161H81.2873L80.2583 30.8585V31.5433L79.4009 31.7145L78.3719 32.3993L77.5145 33.4264L77 34.2824L76.8285 35.4808L78.0289 35.8232L78.3719 36.8504L78.7149 37.5352L79.9154 37.364L81.6303 37.8776L82.4877 38.3912L83.1737 38.9048L84.2027 39.2472L85.0601 39.7608C85.7461 39.7608 86.7751 39.7608 87.461 39.932V40.788L87.9755 41.8152L88.6615 43.0136L90.2049 44.0408L90.8909 43.5272L91.2338 42.3288L90.5479 40.6168L89.8619 39.932L91.2338 39.2472L91.9198 38.5624L92.2628 37.8776L92.0913 37.1928L91.4053 36.3368L90.3764 35.652L91.0624 34.6248L90.3764 33.7688L89.6904 32.2281L90.2049 31.8857L91.5768 32.0569H92.2628L92.7773 31.7145L93.4632 32.0569L94.4922 32.5705L94.8352 32.9129H96.2071L96.5501 33.7688L97.2361 34.9672L97.922 35.1384L98.608 35.8232L99.4655 35.1384L99.8085 33.94L100.151 33.2552C101.352 34.2824 102.552 35.4808 103.924 36.508V37.1928L105.125 37.7064L105.982 38.22H107.183L107.869 38.5624L108.555 39.4184H109.241L109.755 39.7608L110.441 40.9592C110.269 41.3016 109.926 41.644 109.755 41.9864L108.726 42.6712L108.04 43.6984L106.84 44.212H104.953L103.753 44.3832L102.895 44.5544L102.381 45.4104L101.523 46.0952L100.666 47.8072L99.9799 49.0056L100.666 48.6632L101.695 46.9512L103.238 45.7528L104.439 45.4104L105.296 45.924L104.61 46.78L105.296 47.9784L105.982 48.6632L107.354 49.1768L108.726 48.6632L109.241 47.2936L109.584 47.9784L110.269 48.3208L109.584 49.1768L107.869 50.204L107.183 50.8888L106.497 51.7448H105.811L105.468 50.8888L106.84 49.6904L104.782 50.3752L103.924 50.7176L104.267 51.06L103.41 51.7448L101.695 52.772L101.18 53.2856L101.009 53.4568L101.18 54.1416L101.695 54.8264H102.209L102.038 54.484L102.381 54.8264L101.695 55.1688H101.18L100.494 55.34C100.151 55.5112 99.8085 55.5112 99.4655 55.5112L98.7795 56.0248L100.323 55.6824L100.666 55.8536L99.294 56.3672H98.608V56.196L98.265 56.5384H98.608L98.4365 57.3944L97.7506 58.5928L97.4076 58.2504H97.0646L96.5501 57.908L96.8931 58.5928L97.2361 58.764L97.4076 59.2776L97.2361 59.7912L96.7216 60.8184H96.5501L96.8931 59.9624L96.2071 59.4488L96.0356 58.2504L95.8641 58.9352L96.2071 59.62L95.5212 59.4488L96.2071 59.7912L96.3786 60.9895H96.7216L96.8931 61.5032L97.2361 62.7015L96.5501 63.5575L95.5212 64.0711L94.8352 64.7559L94.1492 65.0983L93.4632 65.6119L93.2918 66.1255L92.0913 66.9815L91.4053 67.6663L90.8909 68.3511V69.2071L91.2338 70.0631L91.7483 71.0903L92.4343 71.9463V72.6311L93.1203 74.1719V75.5415L92.6058 76.3975L92.2628 76.5687L91.5768 76.3975L91.4053 75.7127L90.8909 75.3703C90.3764 74.6855 90.0334 74.0007 89.6904 73.3159L89.5189 72.8023L89.8619 71.9463L89.5189 71.2615L88.6615 70.2343H88.3185L86.4321 70.5767H86.2606L85.7461 70.0631L85.0601 69.7207L83.5167 69.8919L82.3163 69.7207H81.4588L80.7728 69.8919L81.1158 70.2343V70.7479L81.4588 71.0903L81.1158 71.2615L80.6013 70.9191L80.0869 71.0903H79.2294L78.2004 70.2343L77.1715 70.4055L76.314 70.2343H75.4566L74.4276 70.5767L73.2272 71.4327L72.0267 71.9463L71.1693 72.4599L70.8263 73.1447L70.6548 74.0007V74.6855L70.8263 75.1991L70.1403 76.2263L69.7973 77.0823V78.7943L69.4543 79.4791L69.6258 80.1639L69.9688 80.8487L70.1403 81.8759L70.8263 82.9031L71.1693 83.5879L71.6837 84.2727L73.0557 84.7863L73.5702 85.4711L74.7706 85.1287L75.7996 84.9575C76.4855 84.7863 77 84.6151 77.686 84.6151L78.5434 84.1015L78.8864 83.4167L79.0579 82.3895L79.4009 82.0471L80.2583 81.7047L81.6303 81.3623H82.8307L83.5167 81.1911L83.8597 81.5335V82.2183L83.1737 82.9031L82.8307 83.5879L83.1737 83.7591C83.0022 84.2727 82.6592 84.7863 82.4877 85.2999L82.3163 84.7863H81.9733V84.9575H82.3163V85.2999L81.9733 85.9847L82.1448 86.1559L81.9733 86.6695L82.1448 86.8407L81.9733 87.5255L81.6303 87.8679H81.2873L80.9443 88.3815L81.4588 88.7239L81.6303 88.5527C81.8018 88.7239 81.9733 88.7239 82.1448 88.7239L82.4877 88.5527H83.0022L83.1737 88.7239H83.3452L84.0312 88.8951H84.7171L85.2316 88.7239L85.4031 88.5527H85.7461L86.0891 88.7239H86.4321L86.775 88.5527L87.461 88.7239H87.6325L88.147 89.0663L88.49 89.4087L89.0045 89.5798L89.3474 89.9222L89.1759 90.0934V90.4358L89.3474 90.9494L88.6615 90.7782L88.49 91.2918V93.0038L88.3185 93.175L88.147 93.8598L88.3185 94.2022H87.9755V94.5446L88.147 94.7158L88.49 95.4006C89.0044 95.9142 89.5189 96.2566 90.0334 96.9414V97.2838H90.5479L90.7194 97.1126L91.0624 97.455L91.7483 97.2838L92.4343 96.9414L93.1203 96.599L93.6347 96.0854H94.3207V96.2566H95.0067L95.6926 96.4278L96.2071 96.7702L96.7216 97.1126H97.4076L98.265 96.2566L98.951 96.0854V95.5718L99.294 94.5446L99.9799 93.8598L100.666 93.6886L100.837 93.3462H101.695C102.209 93.0038 102.552 92.6614 103.238 92.319L103.924 91.6342H104.439L104.782 91.9766L104.267 92.4902V92.8326L103.581 93.0038L104.096 93.6886V94.2022L103.581 95.2294L104.096 96.0854L104.782 95.9142L105.125 95.0582L104.782 94.5446V93.6886L106.325 93.0038L105.811 92.4902L106.325 91.9766L106.84 92.8326H107.697L108.383 93.5174V94.031L109.412 93.8598L110.612 93.5174L111.298 94.031H112.156L112.842 93.5174V93.175C113.699 93.0038 114.728 92.8326 115.586 92.6614L114.9 93.3462L115.414 94.031H116.272L117.129 94.5446L117.301 95.4006L117.987 95.2294C118.33 95.4006 118.673 95.5718 119.187 95.9142L119.873 96.599V97.2838H120.388L121.245 98.1398H122.445L122.617 97.7974L123.474 97.455L124.503 97.6262C124.846 97.6262 125.189 97.7974 125.532 97.7974L126.561 98.4822L126.733 98.9958L127.076 98.8246L127.247 99.5094L127.762 101.564H128.276V102.42L127.59 103.618L127.933 103.961L129.648 103.618L129.305 104.817L129.991 103.789L131.02 103.961L132.392 104.303L132.735 104.988V105.673L133.764 104.988H135.307L136.508 104.474L137.537 104.988L138.223 105.844L138.737 106.015L139.423 105.673L139.595 106.015V107.042H139.766V107.727V107.727ZM102.895 84.6151L102.209 84.7863H101.523L100.837 85.1287L100.151 84.6151V84.1015H100.323C101.009 84.1015 101.695 84.2727 102.552 84.2727L103.067 83.9303L102.381 83.4167V82.9031L101.695 82.7319L102.038 82.3895H102.724L103.753 82.5607L103.924 82.3895L104.782 82.2183L105.468 82.5607H105.811L106.154 83.0743L106.84 82.9031V83.4167H107.354L108.04 83.9303L107.526 84.6151L106.84 84.4439L106.154 84.6151H105.639L105.468 84.9575L104.953 85.1287L104.782 84.2727L104.267 84.4439L103.753 85.2999L103.41 85.1287V84.7863L102.895 84.6151ZM96.3786 81.8759H95.6926L95.1782 81.5335L94.8352 80.8487H94.1492L92.7773 80.5063L92.2628 80.1639H90.7194L90.2049 79.8215L90.7194 79.4791H89.5189L88.6615 80.1639H87.9755L87.804 80.5063L87.118 80.6775L86.6036 80.5063L87.2895 79.9927L87.6325 79.4791L89.0045 78.7943L89.8619 78.6231L90.2049 78.4519H92.4343L93.6347 78.9655L94.1492 79.4791L95.3497 79.3079C96.0356 79.8215 96.8931 80.3351 97.5791 80.8487H98.0935L98.7795 81.0199V81.3623H99.637L100.494 81.8759L100.323 82.2183L99.637 82.3895L98.951 82.9031H96.0356L96.7216 82.2183L96.3786 81.8759ZM91.9198 150.527L91.2338 150.698L90.7194 151.04L90.0334 151.212H89.3474L88.6615 151.04H87.9755L88.49 151.383L89.1759 151.554H90.2049L90.7194 151.212C91.2339 151.04 91.4053 151.04 91.9198 150.869C92.0913 150.698 92.2628 150.698 92.4343 150.698V150.527H91.9198ZM133.935 27.0921V26.7497L133.421 26.0649L133.249 25.8937L133.421 26.2361C133.592 26.4073 133.764 26.7497 133.935 27.0921ZM82.4877 16.6489L81.9733 16.3065V16.4777L82.4877 16.6489ZM120.559 13.2249L120.902 13.3961C120.731 13.3961 120.731 13.2249 120.559 13.2249ZM144.911 43.5272L145.082 43.356V43.1848L144.739 42.3288L144.568 41.644C144.053 40.788 143.882 39.5896 143.539 38.5624C143.539 38.3912 143.539 38.3912 143.367 38.22C143.71 38.9048 144.225 39.5896 144.568 40.2744C144.739 40.6168 144.911 40.9592 145.254 41.3016C143.367 37.7064 141.31 34.4536 138.909 31.2009C138.566 30.6873 138.223 30.3449 137.708 29.8313V30.0025H137.537C137.708 30.3449 138.051 30.6873 138.223 30.8585C138.394 31.2009 138.737 31.5433 138.909 31.8857V32.5705L139.423 33.4264C139.766 33.94 140.109 34.1112 140.281 34.4536L140.967 35.4808L141.138 36.1656L141.481 36.508C141.824 37.1928 142.167 37.7064 142.339 38.22L142.682 38.7336L143.024 39.4184L143.539 40.1032L143.71 40.6168L144.225 41.644V42.5L144.396 43.1848L144.568 43.8696L144.911 44.0408V43.5272V43.5272ZM142.339 36.508C142.339 36.3368 142.167 36.1656 142.167 35.9944L142.51 36.6792L142.339 36.508ZM142.853 37.364C143.024 37.5352 143.196 37.8776 143.196 38.0488C143.196 37.8776 143.024 37.7064 142.853 37.364Z" fill="white"/>
</svg>
