<svg width="168" height="168" viewBox="0 0 168 168" fill="none" xmlns="http://www.w3.org/2000/svg">
<path d="M78.5415 167.999C72.9276 167.999 67.6503 165.813 63.6807 161.843L60.8175 158.981C60.0647 158.227 60.0647 157.007 60.8175 156.253C61.571 155.501 62.7915 155.501 63.5442 156.254L66.4075 159.117C69.6482 162.358 73.958 164.143 78.5415 164.143C83.1254 164.143 87.4347 162.358 90.6759 159.117L159.118 90.6752C162.358 87.4344 164.144 83.1247 164.144 78.5412C164.144 73.9577 162.358 69.648 159.118 66.4072L156.254 63.5443C155.501 62.7912 155.501 61.5707 156.254 60.8176C157.007 60.0649 158.228 60.0649 158.981 60.8176L161.844 63.6805C165.814 67.6501 168 72.9277 168 78.5416C168 84.1555 165.814 89.4327 161.844 93.4019L93.4022 161.843C89.433 165.813 84.155 167.999 78.5415 167.999Z" fill="white"/>
<path d="M10.3723 107.737C9.87869 107.737 9.38509 107.549 9.00873 107.172L6.14586 104.309C-2.04862 96.1144 -2.04862 82.7815 6.14586 74.5871L74.5877 6.14557C82.7822 -2.04852 96.1155 -2.04852 104.309 6.14557L107.172 9.00844C107.926 9.76156 107.926 10.9821 107.172 11.7352C106.42 12.4879 105.199 12.4879 104.446 11.7352L101.583 8.87231C94.8915 2.18137 84.0054 2.18137 77.3145 8.87231L8.87299 77.3142C2.18205 84.0051 2.18205 94.8916 8.87299 101.583L11.7358 104.445C12.489 105.199 12.489 106.419 11.7358 107.172C11.3591 107.548 10.8659 107.737 10.3723 107.737Z" fill="white"/>
<path d="M29.4598 148.638C28.9665 148.638 28.4729 148.45 28.0966 148.073C27.3435 147.321 27.3435 146.1 28.0966 145.347L34.7582 138.685C35.4562 137.987 35.8337 137.05 35.8221 136.046C35.8106 135.026 35.3995 134.059 34.6657 133.325C33.2146 131.873 32.4028 129.954 32.3793 127.92C32.3554 125.869 33.1347 123.947 34.5727 122.51L37.2374 119.845C38.6754 118.407 40.5892 117.629 42.6473 117.652C44.6811 117.675 46.6007 118.487 48.0514 119.939C49.5549 121.441 51.9601 121.483 53.4119 120.031L56.077 117.366C57.5288 115.914 57.4872 113.509 55.9837 112.006C54.5329 110.555 53.7212 108.636 53.6977 106.601C53.6738 104.551 54.4527 102.63 55.8907 101.192L58.5558 98.5269C61.5119 95.5715 66.3627 95.6135 69.3698 98.6202C70.1036 99.3544 71.0704 99.7651 72.0915 99.7771C72.1062 99.7771 72.1212 99.7771 72.1359 99.7771C73.1234 99.7771 74.0428 99.4003 74.7303 98.7127L77.3954 96.0481C78.8476 94.5958 78.8056 92.1911 77.3024 90.6872C75.8513 89.2364 75.04 87.3176 75.0161 85.283C74.9925 83.2327 75.7715 81.3111 77.2095 79.8735L79.8741 77.2085C81.3121 75.7709 83.2318 74.9927 85.284 75.0154C87.3182 75.039 89.2374 75.8507 90.6885 77.3014C92.1913 78.8054 94.5968 78.8466 96.0491 77.3944L98.7134 74.7293C99.4113 74.0317 99.7889 73.0947 99.7777 72.0905C99.7661 71.0698 99.355 70.103 98.6208 69.3688C95.6137 66.3617 95.5721 61.5106 98.5279 58.5548L101.193 55.8897C102.631 54.4517 104.556 53.6678 106.602 53.6967C108.637 53.7202 110.556 54.5319 112.007 55.983C113.51 57.4862 115.915 57.5278 117.367 56.076L120.032 53.4109C121.484 51.9587 121.442 49.5539 119.939 48.0504C118.488 46.5997 117.676 44.6804 117.653 42.6463C117.629 40.5955 118.408 38.674 119.846 37.2364L122.511 34.5717C123.949 33.1337 125.868 32.3694 127.92 32.3783C129.955 32.4018 131.874 33.2136 133.325 34.6643C134.059 35.3985 135.026 35.8096 136.047 35.8211C137.065 35.8262 137.988 35.4548 138.686 34.7572L145.348 28.0952C146.1 27.3425 147.322 27.3425 148.074 28.0952C148.827 28.8483 148.827 30.0692 148.074 30.8219L141.412 37.4839C139.974 38.9215 138.046 39.6986 136.003 39.677C133.969 39.6535 132.049 38.8417 130.598 37.3906C129.864 36.6564 128.898 36.2457 127.876 36.2338C126.877 36.2241 125.935 36.5997 125.238 37.2977L122.573 39.9627C121.875 40.6603 121.497 41.5974 121.509 42.6015C121.52 43.6223 121.931 44.589 122.666 45.3233C125.673 48.3304 125.714 53.1815 122.758 56.1373L120.094 58.8019C117.137 61.7574 112.287 61.7157 109.28 58.709C108.546 57.9748 107.579 57.5637 106.558 57.5521C106.543 57.5521 106.528 57.5521 106.513 57.5521C105.526 57.5521 104.606 57.9289 103.919 58.6161L101.254 61.2811C100.556 61.9787 100.179 62.9158 100.19 63.9199C100.202 64.9407 100.613 65.9074 101.347 66.6417C102.798 68.0924 103.61 70.0116 103.633 72.0458C103.657 74.0965 102.878 76.0181 101.44 77.4557L98.7754 80.1203C95.8196 83.0757 90.9685 83.0352 87.961 80.0274C87.2268 79.2932 86.2601 78.8821 85.2393 78.8705C84.2197 78.8624 83.2981 79.2372 82.6001 79.9345L79.9355 82.5995C79.2375 83.2971 78.86 84.2342 78.8715 85.2387C78.8831 86.2591 79.2942 87.2254 80.028 87.96C83.0355 90.9675 83.0767 95.8186 80.1213 98.774L77.4563 101.439C76.0183 102.877 74.094 103.659 72.0464 103.632C70.0126 103.609 68.093 102.797 66.6423 101.346C65.908 100.612 64.9417 100.201 63.9205 100.189C62.926 100.168 61.9793 100.555 61.2817 101.253L58.6167 103.918C57.9191 104.616 57.5416 105.553 57.5528 106.557C57.5643 107.578 57.9754 108.544 58.7096 109.279C61.7167 112.286 61.758 117.137 58.8026 120.093L56.1375 122.758C53.1825 125.714 48.331 125.672 45.3239 122.665C44.5897 121.931 43.6229 121.519 42.6018 121.508C41.5814 121.505 40.6606 121.874 39.963 122.572L37.2983 125.236C36.6003 125.935 36.2228 126.871 36.234 127.875C36.2456 128.897 36.6566 129.863 37.3909 130.598C38.842 132.048 39.6533 133.967 39.6772 136.002C39.7007 138.052 38.9218 139.974 37.4838 141.412L30.8222 148.073C30.4469 148.45 29.9537 148.638 29.4598 148.638Z" fill="white"/>
<path d="M37.6402 153.487C31.4598 153.487 25.6493 151.08 21.2794 146.71C16.9091 142.34 14.5024 136.53 14.5024 130.35C14.5024 124.169 16.9091 118.359 21.2794 113.989L113.99 21.279C118.36 16.9087 124.17 14.5021 130.35 14.5021C136.531 14.5021 142.341 16.9087 146.711 21.279C151.081 25.6493 153.488 31.4594 153.488 37.6398C153.488 43.8198 151.081 49.6304 146.711 54.0003L54.0006 146.71C49.6307 151.08 43.8206 153.487 37.6402 153.487ZM130.35 18.3583C125.2 18.3583 120.358 20.3639 116.716 24.0057L24.0065 116.716C20.3647 120.357 18.3587 125.2 18.3587 130.35C18.3587 135.5 20.3643 140.341 24.0065 143.983C27.6479 147.625 32.4902 149.631 37.6402 149.631C42.7902 149.631 47.6321 147.625 51.2735 143.983L143.984 51.2731C147.625 47.6317 149.631 42.7894 149.631 37.6394C149.631 32.4894 147.626 27.6472 143.984 24.0057C140.342 20.3639 135.5 18.3583 130.35 18.3583Z" fill="white"/>
</svg>
