<svg width="78" height="122" viewBox="0 0 78 122" fill="none" xmlns="http://www.w3.org/2000/svg">
<path d="M51.6785 84.1888C50.4858 83.9409 49.3255 84.7183 49.0789 85.9072C49.0711 85.9448 48.2456 89.6243 46.0821 89.6256C43.9237 89.6243 43.1009 85.9708 43.0866 85.9098C42.8465 84.7183 41.6927 83.9526 40.4974 84.181C39.302 84.4172 38.5233 85.5775 38.7595 86.7729C39.2916 89.4711 41.4331 94.037 46.0795 94.0396C46.0808 94.0396 46.0808 94.0396 46.0821 94.0396C46.0834 94.0396 46.0834 94.0396 46.0834 94.0396C46.0847 94.0396 46.0847 94.0396 46.086 94.0396C50.7285 94.037 52.8712 89.4711 53.406 86.7742C53.6422 85.5827 52.8686 84.4302 51.6785 84.1888Z" fill="white"/>
<path d="M63.6579 99.8619C61.9161 99.0442 60.116 98.1993 59.7746 97.4465C58.5196 94.6678 59.0349 85.1544 59.7292 78.8234C59.7733 78.7378 59.811 78.6482 59.8421 78.5561H60.6105C60.6702 78.5613 60.726 78.5742 60.787 78.5742C60.848 78.5742 60.9038 78.5613 60.9635 78.5561H68.9233C70.1407 78.5561 71.1297 77.5671 71.1297 76.3497C71.1297 75.1323 70.1407 74.1433 68.9233 74.1433H62.7896C62.3366 71.4191 61.0855 68.9285 59.2334 66.8804L63.179 61.7331C63.9187 60.7662 63.737 59.3813 62.7701 58.6403C61.8032 57.8992 60.4184 58.0822 59.676 59.0491L55.8486 64.0433C53.5514 62.5832 50.8388 61.6163 47.894 61.3346V53.7097C47.894 52.491 46.905 51.5033 45.6876 51.5033C44.4702 51.5033 43.4812 52.491 43.4812 53.7097V61.4424C40.6181 61.8408 37.9951 62.8778 35.7965 64.3937L31.6979 59.0478C30.9568 58.0796 29.5719 57.8966 28.605 58.639C27.6381 59.3801 27.4551 60.7649 28.1962 61.7318L32.5233 67.3775C30.7647 69.4956 29.5953 72.0278 29.2734 74.7884H28.252C26.8828 72.351 25.9807 70.6157 25.9613 70.5781C25.7692 70.2069 25.4811 69.9187 25.1488 69.7163C24.5232 62.016 23.8626 52.6272 23.9353 48.0263C24.0612 40.3208 20.8217 34.8724 19.5148 32.9931H23.5823C24.801 32.9931 25.7887 32.0054 25.7887 30.7867C25.7887 29.568 24.801 28.5803 23.5823 28.5803H16.54H9.24861H2.20638C0.987679 28.5803 0 29.568 0 30.7867C0 32.0054 0.987679 32.9931 2.20638 32.9931H3.31216C2.4997 34.4194 1.04478 37.6057 1.69891 41.2878C2.26608 44.4844 4.22976 47.2359 7.53283 49.4643C7.71064 49.5837 7.90013 49.6642 8.09351 49.7265L8.32194 53.8317C8.38683 54.9997 9.35374 55.9147 10.5244 55.9147H11.1824C9.93 59.6357 8.11557 67.2542 10.9488 74.2835C10.5088 75.7566 9.43291 79.5113 7.53023 87.0298C4.91373 97.3765 6.85534 118.93 6.93841 119.843C7.04353 120.989 8.00526 121.848 9.1331 121.848C9.20059 121.848 9.26808 121.844 9.33817 121.837C10.5517 121.726 11.4446 120.652 11.333 119.439C11.3135 119.222 9.37581 97.7308 11.808 88.111C11.8508 87.9409 11.8937 87.7735 11.9352 87.6074C12.4128 89.3556 13.1033 90.8637 14.0987 91.8177C15.089 92.7716 16.3493 93.1532 17.6523 92.904C21.4706 92.159 24.7737 85.5905 26.0158 82.8014C26.1715 82.4536 26.2325 82.072 26.1975 81.693C26.1936 81.6528 26.1261 80.9454 26.0184 79.7696C27.4811 82.2667 29.2046 85.0558 30.9464 87.5308C32.2962 89.4491 33.1605 91.2894 33.9964 93.0688C35.7978 96.9053 37.4993 100.528 43.1528 103.107C43.4501 103.242 43.7602 103.305 44.0665 103.305C44.905 103.305 45.7057 102.826 46.0756 102.014C46.5818 100.905 46.0925 99.5971 44.9828 99.0909C40.8037 97.1844 39.6239 94.6717 37.9899 91.1921C37.5473 90.2499 37.0736 89.244 36.5116 88.1914C36.57 87.9929 36.6116 87.7852 36.6116 87.5685V77.8357C36.6116 72.8558 40.8621 68.8052 46.0886 68.8052C50.9829 68.8052 55.0244 72.3652 55.5098 76.913C55.1101 80.155 53.5254 94.3304 55.7551 99.261C56.7675 101.498 59.092 102.589 61.785 103.853C66.6598 106.141 72.7261 108.988 73.5944 119.815C73.6865 120.97 74.6521 121.845 75.7903 121.845C75.85 121.845 75.9097 121.843 75.9694 121.837C77.1842 121.74 78.0902 120.676 77.9928 119.462C76.9169 106.086 68.9376 102.341 63.6579 99.8619ZM14.1442 32.9944L12.6373 51.5033H12.6101L11.5796 32.9944H14.1442ZM6.04677 40.5545C5.57045 37.9639 6.86573 35.62 7.26936 34.9671L7.76645 43.8913C6.84496 42.8569 6.26481 41.742 6.04677 40.5545ZM17.0138 88.4873C15.5718 86.7145 15.0916 79.8864 15.4823 74.351C15.4849 74.3133 15.4797 74.2757 15.4797 74.2393C15.481 74.1706 15.4797 74.1031 15.4758 74.033C15.4706 73.9577 15.4602 73.885 15.4472 73.811C15.4369 73.75 15.4252 73.6878 15.4083 73.6268C15.3862 73.545 15.3564 73.4645 15.3265 73.3854C15.311 73.3477 15.3045 73.3075 15.2876 73.2711C11.6704 65.4125 15.9962 55.6292 16.0741 55.4553C16.0845 55.4319 16.0884 55.4086 16.0988 55.3852C16.5297 55.0179 16.823 54.4923 16.8723 53.8875L18.0313 39.6511C18.8645 41.8056 19.5758 44.6311 19.5212 47.9536C19.3915 56.0653 21.3772 77.5878 21.7471 81.5269C20.239 84.7456 18.1053 87.8786 17.0138 88.4873ZM30.8127 79.2024H32.1962V81.4464C31.7225 80.6988 31.2605 79.9461 30.8127 79.2024Z" fill="white"/>
<path d="M7.22667 26.9892H17.9782C18.7102 26.9892 19.3955 26.6258 19.8056 26.0184C19.9964 25.7354 24.4338 18.9307 19.0502 5.64184C17.5901 2.03895 16.6674 0 14.6544 0C12.4298 0 12.0249 2.23363 11.6991 4.02729C11.4473 5.41601 10.923 8.30506 9.92494 8.30636C9.74323 8.30636 9.50962 8.26093 9.24875 8.17787C8.22732 7.84562 7.11375 8.29857 6.61537 9.25251C6.42718 9.60942 2.06504 18.0819 5.18642 25.6277C5.52905 26.4519 6.33373 26.9892 7.22667 26.9892ZM9.90547 12.7191C9.91196 12.7191 9.91845 12.7191 9.92623 12.7191C9.92623 12.7191 9.92623 12.7191 9.92753 12.7191C13.0165 12.7191 14.4895 10.3933 15.267 8.07534C18.2287 15.8418 17.2631 20.6335 16.5726 22.5764H8.81656C7.8769 18.8295 9.093 14.797 9.90547 12.7191Z" fill="white"/>
</svg>
