<svg width="273" height="172" viewBox="0 0 273 172" fill="none" xmlns="http://www.w3.org/2000/svg">
<path d="M131.114 172C129.633 172 128.383 171.332 127.562 170.737L124.367 170.145C124.181 170.111 123.998 170.061 123.821 169.996C121.975 169.314 115.948 166.706 115.948 161.762C115.948 160.364 115.645 159.445 115.478 159.05C111.515 154.779 110.837 153.697 110.73 152.634C110.499 151.879 109.714 149.685 108.963 147.661C107.007 146.01 104.763 145.068 104.378 145.437C103.37 146.404 102.633 147.081 102.126 147.509C101.946 147.661 101.766 147.797 101.594 147.915C100.885 148.69 99.7477 149.561 98.0955 149.781C95.8579 150.08 93.6513 149.074 91.5403 146.79C91.0027 146.21 90.5608 145.739 90.1949 145.35C88.2951 143.329 87.6562 142.649 87.3775 140.293C87.3494 140.045 87.3128 139.737 87.2509 139.346C87.0623 138.353 84.9232 135.238 82.7053 132.713C81.8271 132.033 79.5783 130.531 77.822 130.291C76.6229 130.128 75.7082 130.305 75.2494 130.48C74.9961 131.188 74.5345 131.811 73.904 132.284C73.3242 132.721 71.5567 134.049 64.9367 132.814C64.8776 132.803 64.8157 132.792 64.7566 132.775C63.4957 132.468 52.302 129.665 47.1316 125.945C42.724 122.77 37.8603 120.806 37.8097 120.786C37.4832 120.656 37.182 120.476 36.9118 120.25L33.9931 117.815L25.873 116.324C24.719 116.112 23.7564 115.3 23.3483 114.192L22.4983 111.884C18.8337 107.489 14.3922 102.488 12.9652 101.33C10.2379 100.168 8.38589 97.9301 7.65128 91.2267C6.3059 89.3127 4.84794 87.0322 4.52145 85.727C4.4539 85.4621 4.42294 85.1886 4.42294 84.9152V80.6784L2.38799 71.0377C1.30718 68.7092 -0.238032 64.8079 0.201045 62.3131C0.395252 61.2025 0.251707 58.8909 0.141938 57.8733C-0.0494545 56.5823 -0.392835 52.7344 1.81662 50.4455C2.22192 49.6054 2.81017 46.8429 3.12541 44.2974C2.39643 39.5757 3.34495 37.9154 4.46797 37.0218C4.91268 36.5003 6.01037 34.7808 6.83786 33.3741C8.76586 28.3762 10.9303 22.4931 11.2737 21.1541C11.3778 18.9272 12.1743 8.54509 12.4305 5.23568C12.4783 4.61552 12.6978 4.02073 13.0666 3.51896C13.4522 2.99182 14.9017 1.28074 17.1646 1.30611C17.9837 1.31739 19.512 1.58519 20.7138 3.21452C20.8011 2.90444 20.8771 2.62536 20.9193 2.4675C21.1726 1.53444 21.8171 0.756421 22.6869 0.333583C23.5537 -0.0864356 24.5614 -0.111803 25.448 0.268751C25.5268 0.302578 33.5793 3.67964 51.9699 7.33859C68.6492 10.6565 97.4256 14.8792 140.312 16.3253C140.754 15.6713 141.376 15.0878 142.259 14.7834C143.126 14.4845 144.049 14.5297 144.852 14.8933C147.525 15.9617 148.243 17.5346 148.33 18.7693L148.93 18.9159H154.095C154.767 18.9159 155.423 19.1189 155.978 19.4994L159.797 22.1154L162.42 21.3655C162.972 21.2077 163.557 21.1936 164.117 21.3289L167.253 22.0815C169.561 20.0237 172.463 18.369 175.123 19.553C176.972 20.3761 189.162 27.5559 191.585 28.9851C191.836 29.1316 192.064 29.3121 192.263 29.515C194.008 29.6221 195.393 31.0739 195.393 32.8498L195.399 33.0528C196.71 33.0528 197.848 33.811 198.391 34.9161C201.495 35.2628 203.347 36.4383 203.919 38.4341C204.33 39.8774 206.604 52.0438 206.604 54.3243C206.604 55.1221 206.379 56.0326 206.035 56.9628C206.317 56.6696 206.59 56.368 206.849 56.072C207.234 55.6295 207.732 55.294 208.29 55.1023C210.98 54.1834 213.818 52.9318 215.138 52.1199C214.946 51.2179 214.594 50.1241 214.33 49.456C214.099 48.8753 214.034 48.2354 214.147 47.6209C214.237 47.1191 215.239 42.7104 222.152 42.7104C223.643 42.7104 224.73 42.6878 225.501 42.6568L228.197 37.1035C228.223 37.0528 228.248 37.0049 228.273 36.9541C228.572 36.4129 231.42 31.6067 239.591 29.9689C240.399 29.8082 241.147 29.6588 241.845 29.5235C244.561 28.9879 247.137 28.4805 247.959 28.0886C248.448 27.0259 249.377 23.6968 249.74 20.2915C250.261 15.4176 255.431 12.0546 256.709 11.2964C258.201 10.3182 260.675 9.57399 262.932 10.6085C265.114 11.6093 266.408 13.808 266.777 17.1456C267.261 21.5149 271.01 23.5305 271.171 23.615C272.13 24.0942 272.786 25.0019 272.958 26.0618C273.13 27.1218 272.769 28.1929 272.009 28.954L266.529 34.4425C266.434 34.5355 266.335 34.6257 266.228 34.7075C263.521 36.8357 260.728 39.6265 260.154 40.7512C260.205 42.1635 260.596 44.1508 260.866 45.3489C262.462 47.2178 264.705 50.6654 262.8 53.6619C261.404 55.8606 258.454 57.4533 257.585 57.8902L252.392 60.4893C252.344 60.5118 252.296 60.5372 252.245 60.5569C251.105 61.0615 249.822 61.7578 249.115 62.237C249.068 63.5675 249.042 65.9552 249.042 68.044C249.042 68.6811 248.862 69.3012 248.522 69.8368L247.024 72.1934V79.3281C247.024 79.5705 246.999 79.8158 246.945 80.0526C246.112 83.8074 245.406 86.2739 244.378 87.6975C246.61 89.5664 249.67 92.8843 248.707 96.422C248.082 98.711 244.362 102.801 237.64 108.58C235.214 111.021 232.78 113.815 232.146 114.875C231.963 116.067 230.947 118.398 225.276 123.898C224.643 124.763 221.276 129.818 224.347 135.357C228.544 142.923 230.798 146.785 231.032 147.188L234.181 152.262C234.778 153.144 235.797 155.34 235.47 159.749C235.144 164.166 234.299 166.216 234.133 166.582C234.06 166.746 233.973 166.903 233.872 167.053C233.551 167.535 231.814 169.948 229.002 170.275C227.381 170.466 225.774 169.903 224.476 168.691C222.138 166.506 218.83 161.883 218.245 161.054L212.013 153.181C211.611 152.671 211.363 152.056 211.304 151.408C211.265 150.838 211.045 148.059 211.408 145.793C210.904 144.857 209.261 142.906 207.6 141.282C206.992 141.048 205.638 140.842 203.888 142.472C201.031 145.127 198.681 145.068 197.214 144.552C194.996 143.771 194.037 141.753 193.634 140.428C193.237 140.149 192.339 139.763 190.592 140.031C185.956 140.735 182.953 141.581 182.922 141.59C182.516 141.705 182.089 141.742 181.672 141.699C180.907 141.621 180.118 141.556 179.356 141.502C179.474 142.61 179.17 143.757 178.466 144.775C176.516 147.597 172.584 152.166 168.176 151.061C165.924 150.497 161.503 148.533 159.898 147.802L153.146 147.25C153.05 147.241 153.017 147.244 152.991 147.244C152.969 147.244 152.952 147.241 152.901 147.23C152.324 147.233 148.654 147.49 142.859 153.074C138.555 157.223 136.019 158.903 134.654 159.808C134.77 160.823 135.048 162.159 135.248 163.115C135.527 164.442 135.651 165.057 135.651 165.657C135.648 170.334 133.306 172 131.114 172ZM125.887 163.628L128.642 164.138C128.307 162.526 127.927 160.609 127.927 159.061C127.927 156.248 129.54 155.182 130.962 154.241C132.231 153.401 134.353 151.994 138.232 148.259C146.487 140.301 152.265 140.394 153.796 140.6L161.024 141.189C161.415 141.22 161.795 141.322 162.15 141.485C164.188 142.427 167.869 144.019 169.541 144.507C169.958 144.321 170.712 143.712 171.565 142.765C170.892 142.328 170.079 141.615 169.631 140.53C169.189 139.464 169.201 138.283 169.662 137.206C170.619 134.971 172.618 134.105 181.734 134.988C182.936 134.678 185.742 134.004 189.592 133.42C195.267 132.555 198.532 135.36 199.567 137.15C199.595 137.2 199.624 137.251 199.652 137.302C204.377 133.152 209.348 134.424 211.352 135.709C211.529 135.822 211.695 135.952 211.847 136.098C218.92 142.81 218.284 145.578 218.042 146.621C217.873 147.36 217.857 148.744 217.904 149.86L223.545 156.989C223.584 157.037 223.621 157.088 223.655 157.139C224.465 158.289 226.652 161.263 228.287 163.047C228.465 162.311 228.693 161.08 228.828 159.27C228.988 157.085 228.665 156.104 228.589 155.91C228.583 155.901 228.577 155.893 228.575 155.884L225.355 150.697C225.341 150.675 225.326 150.65 225.312 150.627C225.22 150.469 222.993 146.672 218.526 138.621C212.996 128.654 219.906 119.943 220.204 119.577C220.288 119.472 220.381 119.371 220.48 119.278C222.695 117.138 224.952 114.621 225.566 113.62C225.749 112.397 226.81 110.009 233.027 103.782C233.086 103.723 233.151 103.664 233.216 103.607C236.734 100.586 240.835 96.6447 242.068 94.9364C241.589 94.2035 240.39 93.0027 239.267 92.1795C239.107 92.0612 238.952 91.9258 238.817 91.7821L234.544 87.2774C233.956 86.6573 233.627 85.8313 233.627 84.9744V79.345C233.627 78.4091 234.018 77.5184 234.705 76.8869C235.391 76.2527 236.312 75.9398 237.241 76.0159L239.94 76.2414C240.086 76.2527 240.233 76.2752 240.373 76.3062V71.2406C240.373 70.6036 240.553 69.9834 240.894 69.4478L242.394 67.0884C242.4 65.2561 242.431 61.755 242.557 60.6161C242.673 59.5788 242.912 57.4195 249.501 54.4934L254.624 51.9282C255.279 51.5956 256.02 51.1192 256.546 50.7076C256.239 50.2284 255.792 49.6534 255.437 49.2813C255.043 48.8697 254.762 48.3623 254.618 47.8098C254.503 47.3672 253.501 43.4123 253.501 40.4693C253.501 37.6927 256.352 34.0309 261.975 29.5883L264.627 26.9329C262.704 25.0386 260.633 22.0815 260.168 17.8954C260.132 17.5741 260.09 17.3176 260.045 17.1118C258.387 18.1322 256.515 19.9448 256.402 21.0132C256.017 24.6157 254.894 29.6165 253.574 31.7899C252.02 34.3466 249.242 34.8935 243.157 36.0915C242.467 36.2269 241.724 36.3734 240.925 36.5341C236.202 37.4813 234.435 39.7787 234.147 40.1959L230.683 47.3277C230.21 48.3003 229.298 48.9853 228.231 49.1629C227.891 49.2192 226.447 49.4053 222.174 49.4053C221.862 49.4053 221.594 49.4194 221.372 49.4448C221.687 50.5836 221.969 51.9423 221.969 53.1573C221.969 55.9762 219.331 57.7352 215.371 59.5083C213.795 60.213 212.236 60.805 211.31 61.1433C209.455 63.1842 206.472 66.0228 203.888 66.4936C202.54 66.7416 201.18 66.4456 200.065 65.6704C197.991 64.2243 197.386 61.6027 197.251 60.8332C197.102 59.9847 197.285 59.1136 197.76 58.3976C198.765 56.8839 199.778 54.9557 199.95 54.2454C199.857 52.6583 198.481 44.8894 197.817 41.611C197.127 41.5349 196.215 41.501 195.556 41.5292C194.65 41.5631 193.766 41.2304 193.111 40.599C192.854 40.3509 192.641 40.0662 192.477 39.759H192.08C190.237 39.759 188.742 38.2621 188.742 36.4157V35.9985C187.791 35.6405 187.048 34.8625 186.738 33.89C181.098 30.5721 175.249 27.1866 173.138 26.0421C172.443 26.4678 171.365 27.3783 170.698 28.0802C169.876 28.9456 168.657 29.3036 167.501 29.0273L163.436 28.0492L160.149 28.9907C159.195 29.2641 158.167 29.0978 157.348 28.5369L153.087 25.6165H148.55C148.283 25.6165 148.012 25.5826 147.753 25.5206L144.593 24.7426C143.669 24.5143 142.901 23.9082 142.462 23.0992C142.448 23.0992 142.434 23.0992 142.42 23.0992C74.8779 20.9991 40.5229 12.283 28.2203 8.35058C28.2232 8.36468 28.2232 8.37878 28.226 8.39287C28.7833 12.2238 27.9642 17.2048 23.8155 18.6425C22.1887 19.2062 20.5393 18.868 19.405 17.7348C19.1151 17.4444 18.6338 16.9652 18.3327 15.9786C18.1216 18.837 17.964 21.1034 17.9555 21.5347C17.9555 22.1746 17.9555 23.1781 12.9849 36.0521C12.9202 36.2184 12.8442 36.3763 12.7541 36.5313C11.2061 39.1867 10.2182 40.5849 9.57365 41.3545C9.58209 41.9521 9.67216 42.8936 9.80444 43.6773C9.84385 43.9761 9.85229 44.2918 9.81852 44.6047C8.96851 52.1453 7.48803 54.22 6.77594 54.9501C6.6718 55.3588 6.65773 56.2778 6.75624 56.9431C6.76187 56.9854 6.77031 57.0417 6.77313 57.0812C6.84349 57.7324 7.17561 61.0531 6.79283 63.373C6.82097 64.1623 7.66254 66.5866 8.58573 68.5316C8.69831 68.7684 8.78275 69.0221 8.83904 69.2787L11.026 79.641C11.0738 79.8693 11.0992 80.1005 11.0992 80.3316V84.2189C11.3806 84.7573 12.0618 85.9328 13.5929 88.0555C13.9447 88.5431 14.1586 89.1154 14.2121 89.7158C14.5864 93.9329 15.2816 94.9562 15.4027 95.1056C15.4674 95.1366 15.6053 95.1901 15.7067 95.2296L15.8052 95.2663C16.0134 95.348 16.2161 95.4495 16.4047 95.5735C18.8252 97.138 25.3213 104.82 28.0008 108.05C28.2429 108.343 28.4343 108.673 28.5665 109.031L28.9578 110.091L36.0674 111.396C36.6332 111.5 37.1623 111.748 37.6014 112.115L40.8072 114.79C42.3046 115.43 46.8023 117.468 51.0355 120.512C54.4974 123.004 63.1016 125.477 66.2512 126.252C67.4164 126.463 68.7505 126.607 69.6568 126.632C69.9749 126.164 70.3802 125.733 70.8558 125.355C72.7275 123.875 75.6716 123.241 78.7283 123.661C82.8432 124.222 86.7105 127.34 87.1383 127.695C87.2677 127.802 87.3888 127.918 87.5014 128.042C88.8496 129.55 93.291 134.748 93.8483 138.294C93.9271 138.793 93.9721 139.182 94.0115 139.501C94.0172 139.551 94.0228 139.599 94.0284 139.644C94.248 139.898 94.6448 140.321 95.0614 140.761C95.4385 141.161 95.8945 141.646 96.4461 142.243C96.6995 142.52 96.9134 142.714 97.0794 142.852C97.4116 142.492 97.8084 142.215 98.2419 142.032C98.5599 141.745 99.0468 141.296 99.773 140.6C104.307 136.256 110.919 140.248 114.111 143.295C114.476 143.642 114.758 144.07 114.932 144.541C116.286 148.152 116.894 149.905 117.167 150.855C117.772 151.625 119.36 153.406 120.685 154.827C120.826 154.977 120.95 155.14 121.06 155.312C121.316 155.718 122.58 157.888 122.628 161.542C123.007 162.111 124.536 163.084 125.887 163.628ZM228.757 156.149C228.76 156.155 228.766 156.16 228.772 156.166C228.769 156.16 228.763 156.155 228.757 156.149ZM228.755 156.141C228.757 156.144 228.757 156.146 228.76 156.146C228.757 156.146 228.755 156.144 228.755 156.141ZM2.04742 50.2312C2.04742 50.2312 2.0446 50.2312 2.04742 50.2312C2.0446 50.2312 2.04742 50.2312 2.04742 50.2312ZM11.2708 21.4163C11.2708 21.4445 11.2708 21.4726 11.2708 21.5008C11.2708 21.4755 11.2708 21.4473 11.2708 21.4163ZM141.463 20.596C141.595 20.7003 141.736 20.7933 141.879 20.8722C141.879 20.8722 141.879 20.8722 141.879 20.8694C141.733 20.7905 141.592 20.6974 141.463 20.596Z" fill="white"/>
</svg>
