<svg width="173" height="118" viewBox="0 0 173 118" fill="none" xmlns="http://www.w3.org/2000/svg">
<path d="M54.5933 72.1131L41.6639 78.6689C41.6639 78.6689 28.0061 69.3816 26.5493 68.471C25.0925 67.5605 23.4535 66.65 22.3609 66.2858C17.8083 64.829 6.15369 63.7363 2.87582 71.3847C-0.584147 79.3973 -0.0378358 100.521 0.144268 115.454C0.144268 116.729 1.05479 117.821 2.32951 117.821C5.60738 117.821 25.6388 117.821 27.0956 117.821C28.5525 117.821 29.0988 116.911 29.2809 115.818C29.463 115.09 30.7377 98.154 30.7377 90.6877C30.7377 89.9593 30.7377 89.0488 30.7377 88.1382L37.2934 92.5087C38.3861 93.2372 39.8429 93.7835 41.1176 93.7835C42.2102 93.7835 43.3029 93.6014 44.2134 93.0551L60.6027 84.6783C64.0627 83.0393 65.3374 78.851 63.5164 75.391C62.0595 71.7489 58.0533 70.2921 54.5933 72.1131Z" fill="white"/>
<path d="M17.2621 61.7331C25.6096 61.7331 32.3767 54.9661 32.3767 46.6185C32.3767 38.2709 25.6096 31.5039 17.2621 31.5039C8.9145 31.5039 2.14746 38.2709 2.14746 46.6185C2.14746 54.9661 8.9145 61.7331 17.2621 61.7331Z" fill="white"/>
<path d="M170.229 71.3847C166.951 63.7363 155.297 64.829 150.744 66.2858C149.651 66.65 148.012 67.5605 146.556 68.471C145.099 69.3816 131.441 78.6689 131.441 78.6689L118.512 72.1131C115.052 70.4742 111.045 71.7489 109.224 75.0268C107.585 78.4868 108.86 82.493 112.138 84.3141L128.527 92.6908C129.438 93.2372 130.531 93.4193 131.623 93.4193C132.898 93.4193 134.355 93.0551 135.447 92.1445L142.003 87.774C142.003 88.6846 142.003 89.5951 142.003 90.3235C142.003 97.7898 143.278 114.725 143.46 115.454C143.642 116.729 144.188 117.457 145.645 117.457C147.102 117.457 167.315 117.457 170.411 117.457C171.686 117.457 172.596 116.364 172.596 115.09C173.143 100.339 173.689 79.3973 170.229 71.3847Z" fill="white"/>
<path d="M156.025 61.7331C164.372 61.7331 171.139 54.9661 171.139 46.6185C171.139 38.2709 164.372 31.5039 156.025 31.5039C147.677 31.5039 140.91 38.2709 140.91 46.6185C140.91 54.9661 147.677 61.7331 156.025 61.7331Z" fill="white"/>
<path d="M111.227 53.7206V46.0723H113.595C116.691 47.8933 122.336 50.9891 129.074 53.1743C131.077 53.7206 132.898 51.7175 131.987 49.8964C130.166 45.8901 128.709 41.8839 127.617 39.1523V3.82418C127.617 1.63893 125.796 0 123.793 0H66.0658C63.8805 0 62.2416 1.82103 62.2416 3.82418V11.6546H49.3122C47.127 11.6546 45.488 13.4757 45.488 15.4788V50.6248C44.3954 53.3564 42.9386 57.3627 41.1175 61.1869C40.207 63.0079 42.0281 65.1931 44.0312 64.4647C50.5869 62.4616 56.05 59.5479 59.1458 57.7269H107.403C109.589 57.7269 111.227 55.9059 111.227 53.7206ZM59.51 19.1209L61.3311 18.9388L62.0595 17.2999C62.0595 17.1178 62.2416 17.1178 62.4237 17.1178C62.6058 17.1178 62.7879 17.1178 62.7879 17.2999L63.5163 18.9388L65.3373 19.1209C65.5194 19.1209 65.5194 19.303 65.7015 19.303C65.7015 19.4851 65.7015 19.6672 65.5194 19.6672L64.0626 20.7598L64.4268 22.5809C64.4268 22.763 64.4268 22.9451 64.2447 22.9451H64.0626H63.8805L62.4237 22.0346L60.9669 22.9451C60.7847 22.9451 60.6026 22.9451 60.6026 22.9451C60.4205 22.9451 60.4205 22.763 60.4205 22.5809L60.7847 20.7598L59.3279 19.6672C59.1458 19.4851 59.1458 19.4851 59.1458 19.303C59.1458 19.303 59.3279 19.1209 59.51 19.1209ZM59.51 27.1335L61.3311 26.9514L62.0595 25.3124C62.0595 25.1303 62.2416 25.1303 62.4237 25.1303C62.6058 25.1303 62.7879 25.1303 62.7879 25.3124L63.5163 26.9514L65.3373 27.1335C65.5194 27.1335 65.7015 27.3156 65.7015 27.3156C65.7015 27.4977 65.7015 27.6798 65.5194 27.6798L64.0626 28.7724L64.4268 30.5934C64.4268 30.7755 64.4268 30.9576 64.2447 30.9576C64.0626 30.9576 63.8805 31.1397 63.8805 30.9576L62.4237 30.0471L60.9669 30.9576H60.7847H60.6026C60.4205 30.7755 60.4205 30.7755 60.4205 30.5934L60.7847 28.7724L59.3279 27.6798C59.1458 27.4977 59.1458 27.4977 59.1458 27.3156C59.1458 27.3156 59.3279 27.1335 59.51 27.1335ZM51.1332 19.1209L52.9543 18.9388L53.6827 17.2999C53.6827 17.1178 53.8648 17.1178 54.0469 17.1178C54.229 17.1178 54.4111 17.1178 54.4111 17.2999L55.1395 18.9388L56.9606 19.1209C57.1427 19.1209 57.1427 19.303 57.3248 19.303C57.3248 19.4851 57.3248 19.6672 57.1427 19.6672L55.6858 20.9419L56.05 22.763C56.05 22.9451 56.05 23.1272 55.8679 23.1272C55.6858 23.1272 55.5037 23.3093 55.5037 23.1272L53.8648 22.2167L52.408 23.1272H52.2259H52.0438C51.8617 23.1272 51.8617 22.9451 51.8617 22.763L52.2259 20.9419L50.769 19.8493C50.5869 19.6672 50.5869 19.6672 50.5869 19.4851C50.9511 19.303 50.9511 19.1209 51.1332 19.1209ZM51.1332 27.1335L52.9543 26.9514L53.6827 25.3124C53.8648 25.1303 54.229 25.1303 54.4111 25.3124L55.1395 26.9514L56.9606 27.1335C57.1427 27.1335 57.3248 27.3156 57.3248 27.3156C57.3248 27.4977 57.3248 27.6798 57.1427 27.6798L55.6858 28.9545L56.05 30.7755C56.05 30.9576 56.05 31.1397 55.8679 31.1397C55.6858 31.1397 55.5037 31.3218 55.5037 31.1397L54.0469 30.2292L52.5901 31.1397H52.408H52.2259C52.0438 31.1397 52.0438 30.9576 52.0438 30.7755L52.408 28.9545L50.9511 27.8619C50.769 27.6798 50.769 27.6798 50.769 27.4977C50.9511 27.3156 50.9511 27.1335 51.1332 27.1335ZM106.311 52.628H50.4048V47.347H106.311V52.628ZM106.311 42.4302H50.4048V37.1492H106.311V42.4302ZM72.6215 22.763C72.6215 22.9451 72.6215 23.1272 72.4394 23.1272C72.2573 23.1272 72.0752 23.3093 72.0752 23.1272L70.6183 22.2167L69.1615 23.1272H68.9794H68.7973C68.6152 23.1272 68.6152 22.9451 68.6152 22.763L68.9794 20.9419L67.5226 19.8493C67.3405 19.6672 67.3405 19.6672 67.3405 19.4851C67.3405 19.303 67.5226 19.303 67.7047 19.303L69.5257 19.1209L70.2541 17.482C70.2541 17.2999 70.4362 17.2999 70.6183 17.2999C70.8004 17.2999 70.9826 17.2999 70.9826 17.482L71.711 19.1209L73.532 19.303C73.7141 19.303 73.7141 19.4851 73.8962 19.4851C73.8962 19.6672 73.8962 19.8493 73.7141 19.8493L72.2573 20.9419L72.6215 22.763ZM67.7047 27.1335L69.5257 26.9514L70.2541 25.3124C70.2541 25.1303 70.4362 25.1303 70.6183 25.1303C70.8004 25.1303 70.9826 25.1303 70.9826 25.3124L71.711 26.9514L73.532 27.1335C73.7141 27.1335 73.8962 27.3156 73.8962 27.3156C73.8962 27.4977 73.8962 27.6798 73.7141 27.6798L72.2573 28.7724L72.6215 30.5934C72.6215 30.7755 72.6215 30.9576 72.4394 30.9576C72.2573 30.9576 72.0752 31.1397 72.0752 30.9576L70.6183 30.0471L69.1615 30.9576H68.9794H68.7973C68.4331 30.9576 68.4331 30.7755 68.4331 30.7755L68.7973 28.9545L67.3405 27.8619C67.1584 27.6798 67.1584 27.6798 67.1584 27.4977C67.5226 27.3156 67.5226 27.1335 67.7047 27.1335ZM106.311 32.0503H79.1772V26.7693H106.311V32.0503ZM106.311 21.8525H79.1772V16.5714H106.311V21.8525ZM67.1584 11.6546V4.9168H122.882V41.1554H111.41V15.4788C111.41 13.2936 109.589 11.6546 107.585 11.6546H67.1584V11.6546Z" fill="white"/>
</svg>
