<svg width="160" height="155" viewBox="0 0 160 155" fill="none" xmlns="http://www.w3.org/2000/svg">
<path d="M118.842 92.6205L116.803 111.997C116.049 120.372 96.072 127.445 79.6529 127.445C63.2338 127.445 43.2569 120.372 42.5028 112.003L40.4637 92.6258C16.3182 95.9128 0 102.736 0 113.644C0 129.776 35.658 154.001 79.6529 154.001C123.648 154.001 159.306 129.781 159.306 113.644C159.306 102.736 142.988 95.9075 118.842 92.6205Z" fill="white"/>
<path d="M79.6534 122.135C97.246 122.135 111.515 114.451 111.515 111.514L113.57 91.9832L121.206 19.4354C117.26 21.7188 111.854 23.2747 106.204 24.3314V53.102H95.5839V25.7758C91.5907 26.1528 87.916 26.3545 84.9635 26.4501V53.102H74.3432V26.4501C71.3907 26.3545 67.716 26.1528 63.7228 25.7758V53.102H53.1024V24.3314C47.4523 23.2747 42.0465 21.7188 38.1011 19.4354L45.7371 91.9832L47.7922 111.514C47.7922 114.451 62.0607 122.135 79.6534 122.135ZM58.4126 79.653H74.6034L79.6534 64.4818L84.7033 79.653H100.894L87.8257 89.4716L88.1125 90.369L92.7855 104.887L79.6534 95.4084L66.5212 104.887L71.1942 90.369L71.481 89.4716L58.4126 79.653Z" fill="white"/>
<path d="M37.1714 10.6204C37.1714 13.9711 43.4002 16.9554 53.102 18.9043C56.2987 19.5468 59.8618 20.0726 63.7224 20.4655C67.0731 20.8054 70.6309 21.0337 74.3427 21.1505C76.0845 21.2089 77.8475 21.2461 79.6529 21.2461C81.4584 21.2461 83.2214 21.2089 84.9631 21.1505C88.675 21.039 92.2328 20.8054 95.5835 20.4655C99.444 20.0726 103.007 19.5468 106.204 18.9043C115.906 16.9607 122.134 13.9711 122.134 10.6204C122.134 8.68217 120.032 6.8767 116.405 5.31019C109.055 2.1347 95.3658 0 79.6529 0C63.9401 0 50.2504 2.1347 42.9011 5.31019C39.2795 6.8767 37.1714 8.68217 37.1714 10.6204Z" fill="white"/>
</svg>
